<svg width="393" height="852" viewBox="0 0 393 852" fill="none" xmlns="http://www.w3.org/2000/svg">
<g clip-path="url(#clip0_142_575)">
<rect width="393" height="852" fill="white"/>
<rect width="393" height="852" fill="url(#paint0_linear_142_575)" fill-opacity="0.9"/>
<path d="M-156.217 44.8223L361.406 -197.985L546.448 196.494L28.8253 439.301L-156.217 44.8223Z" fill="url(#paint1_linear_142_575)" fill-opacity="0.9"/>
<path fill-rule="evenodd" clip-rule="evenodd" d="M188.985 725.981C189.376 725.59 190.009 725.59 190.399 725.981L195.692 731.274L200.985 725.981C201.376 725.59 202.009 725.59 202.399 725.981C202.79 726.371 202.79 727.005 202.399 727.395L196.576 733.218C196.088 733.706 195.297 733.706 194.808 733.218L188.985 727.395C188.595 727.005 188.595 726.371 188.985 725.981Z" fill="white"/>
<path d="M39.0486 512.26V526.805H36.3923L30.0642 517.65H29.9577V526.805H26.8824V512.26H29.5812L35.8596 521.408H35.9875V512.26H39.0486ZM48.2083 522.16V515.896H51.2339V526.805H48.3291V524.824H48.2154C47.9692 525.463 47.5596 525.977 46.9867 526.365C46.4185 526.753 45.7249 526.947 44.9058 526.947C44.1766 526.947 43.535 526.782 42.981 526.45C42.4271 526.119 41.9938 525.648 41.6813 525.037C41.3736 524.426 41.2173 523.695 41.2126 522.842V515.896H44.2382V522.302C44.2429 522.946 44.4157 523.455 44.7566 523.829C45.0975 524.203 45.5544 524.391 46.1274 524.391C46.4919 524.391 46.8328 524.308 47.1501 524.142C47.4673 523.971 47.723 523.721 47.9171 523.389C48.116 523.058 48.2131 522.648 48.2083 522.16ZM59.1365 515.896V518.169H52.5669V515.896H59.1365ZM54.0584 513.283H57.084V523.453C57.084 523.732 57.1266 523.95 57.2118 524.106C57.2971 524.258 57.4154 524.364 57.5669 524.426C57.7232 524.488 57.9031 524.518 58.1067 524.518C58.2488 524.518 58.3908 524.507 58.5329 524.483C58.6749 524.454 58.7838 524.433 58.8596 524.419L59.3354 526.67C59.1839 526.718 58.9708 526.772 58.6962 526.834C58.4216 526.9 58.0878 526.94 57.6948 526.954C56.9656 526.983 56.3264 526.886 55.7772 526.663C55.2327 526.441 54.8089 526.095 54.5059 525.626C54.2028 525.158 54.0537 524.566 54.0584 523.851V513.283ZM60.7874 526.805V515.896H63.7207V517.8H63.8343C64.0332 517.123 64.367 516.611 64.8357 516.266C65.3045 515.915 65.8442 515.74 66.455 515.74C66.6066 515.74 66.7699 515.749 66.9451 515.768C67.1203 515.787 67.2742 515.813 67.4067 515.846V518.531C67.2647 518.489 67.0682 518.451 66.8173 518.418C66.5663 518.384 66.3367 518.368 66.1283 518.368C65.6833 518.368 65.2855 518.465 64.9352 518.659C64.5895 518.848 64.3149 519.114 64.1113 519.454C63.9124 519.795 63.813 520.188 63.813 520.633V526.805H60.7874ZM68.651 526.805V515.896H71.6766V526.805H68.651ZM70.1709 514.49C69.7211 514.49 69.3352 514.341 69.0132 514.043C68.696 513.739 68.5374 513.377 68.5374 512.956C68.5374 512.539 68.696 512.182 69.0132 511.883C69.3352 511.58 69.7211 511.429 70.1709 511.429C70.6207 511.429 71.0042 511.58 71.3215 511.883C71.6434 512.182 71.8044 512.539 71.8044 512.956C71.8044 513.377 71.6434 513.739 71.3215 514.043C71.0042 514.341 70.6207 514.49 70.1709 514.49ZM82.8569 519.007L80.0871 519.177C80.0397 518.941 79.9379 518.728 79.7817 518.538C79.6254 518.344 79.4194 518.19 79.1638 518.077C78.9128 517.958 78.6122 517.899 78.2618 517.899C77.793 517.899 77.3977 517.998 77.0757 518.197C76.7537 518.391 76.5927 518.652 76.5927 518.979C76.5927 519.239 76.6969 519.459 76.9052 519.639C77.1136 519.819 77.4711 519.963 77.9777 520.072L79.9521 520.47C81.0127 520.688 81.8034 521.038 82.3243 521.521C82.8451 522.004 83.1055 522.639 83.1055 523.425C83.1055 524.14 82.8948 524.767 82.4734 525.307C82.0568 525.846 81.4838 526.268 80.7547 526.571C80.0302 526.869 79.1945 527.018 78.2476 527.018C76.8034 527.018 75.6529 526.718 74.7959 526.116C73.9436 525.51 73.4441 524.686 73.2973 523.645L76.2731 523.489C76.3631 523.929 76.5809 524.265 76.9265 524.497C77.2722 524.724 77.7149 524.838 78.2547 524.838C78.785 524.838 79.2111 524.736 79.5331 524.533C79.8598 524.324 80.0255 524.057 80.0302 523.73C80.0255 523.455 79.9095 523.23 79.6822 523.055C79.455 522.875 79.1046 522.738 78.6311 522.643L76.7419 522.267C75.6765 522.054 74.8835 521.685 74.3626 521.159C73.8465 520.633 73.5885 519.963 73.5885 519.149C73.5885 518.448 73.7779 517.845 74.1567 517.338C74.5402 516.831 75.0776 516.441 75.7689 516.166C76.4649 515.891 77.2793 515.754 78.2121 515.754C79.5899 515.754 80.6742 516.045 81.4649 516.628C82.2604 517.21 82.7244 518.003 82.8569 519.007ZM84.6907 526.805V515.896H87.7163V526.805H84.6907ZM86.2106 514.49C85.7608 514.49 85.3749 514.341 85.0529 514.043C84.7357 513.739 84.5771 513.377 84.5771 512.956C84.5771 512.539 84.7357 512.182 85.0529 511.883C85.3749 511.58 85.7608 511.429 86.2106 511.429C86.6604 511.429 87.0439 511.58 87.3612 511.883C87.6831 512.182 87.8441 512.539 87.8441 512.956C87.8441 513.377 87.6831 513.739 87.3612 514.043C87.0439 514.341 86.6604 514.49 86.2106 514.49Z" fill="white"/>
<path d="M26.5266 580.942V570.033H28.1726V579.525H33.1158V580.942H26.5266ZM38.0719 581.107C37.2658 581.107 36.5715 580.935 35.9891 580.59C35.4103 580.242 34.9628 579.754 34.6468 579.126C34.3343 578.494 34.178 577.753 34.178 576.904C34.178 576.066 34.3343 575.328 34.6468 574.688C34.9628 574.049 35.4032 573.55 35.9678 573.192C36.536 572.833 37.2001 572.654 37.96 572.654C38.4217 572.654 38.8691 572.73 39.3023 572.883C39.7356 573.035 40.1244 573.275 40.4689 573.602C40.8133 573.929 41.085 574.353 41.2839 574.875C41.4827 575.393 41.5822 576.024 41.5822 576.766V577.331H35.0783V576.137H40.0214C40.0214 575.718 39.9362 575.347 39.7658 575.024C39.5953 574.697 39.3556 574.44 39.0467 574.252C38.7413 574.063 38.3826 573.969 37.9707 573.969C37.5232 573.969 37.1326 574.079 36.7988 574.3C36.4685 574.516 36.2128 574.8 36.0317 575.152C35.8542 575.5 35.7654 575.878 35.7654 576.286V577.219C35.7654 577.766 35.8613 578.231 36.053 578.614C36.2484 578.998 36.52 579.291 36.868 579.493C37.216 579.692 37.6226 579.791 38.0878 579.791C38.3897 579.791 38.6649 579.749 38.9135 579.664C39.1621 579.575 39.3769 579.443 39.558 579.269C39.7391 579.095 39.8776 578.881 39.9735 578.625L41.481 578.897C41.3602 579.34 41.1436 579.729 40.8311 580.063C40.5222 580.393 40.1333 580.651 39.6646 580.835C39.1994 581.017 38.6685 581.107 38.0719 581.107ZM43.0293 580.942V572.76H44.5581V574.092H44.6593C44.8297 573.641 45.1085 573.289 45.4956 573.037C45.8826 572.782 46.3461 572.654 46.8858 572.654C47.4327 572.654 47.8908 572.782 48.2601 573.037C48.633 573.293 48.9082 573.644 49.0858 574.092H49.171C49.3663 573.655 49.677 573.307 50.1032 573.048C50.5293 572.785 51.0371 572.654 51.6266 572.654C52.3688 572.654 52.9743 572.886 53.443 573.351C53.9153 573.817 54.1515 574.518 54.1515 575.456V580.942H52.5588V575.605C52.5588 575.051 52.4079 574.649 52.106 574.401C51.8042 574.152 51.4437 574.028 51.0247 574.028C50.5062 574.028 50.1032 574.188 49.8155 574.507C49.5279 574.823 49.3841 575.23 49.3841 575.727V580.942H47.7967V575.503C47.7967 575.06 47.6582 574.703 47.3812 574.433C47.1042 574.163 46.7438 574.028 46.2999 574.028C45.9981 574.028 45.7193 574.108 45.4636 574.268C45.2115 574.424 45.0073 574.642 44.851 574.923C44.6983 575.203 44.622 575.528 44.622 575.898V580.942H43.0293ZM58.3472 581.123C57.8287 581.123 57.36 581.027 56.9409 580.835C56.5219 580.64 56.1899 580.358 55.9448 579.989C55.7034 579.619 55.5826 579.166 55.5826 578.63C55.5826 578.169 55.6714 577.789 55.8489 577.49C56.0265 577.192 56.2662 576.956 56.5681 576.782C56.8699 576.608 57.2073 576.476 57.5801 576.388C57.953 576.299 58.333 576.231 58.72 576.185C59.2101 576.128 59.6078 576.082 59.9132 576.047C60.2186 576.008 60.4406 575.946 60.5791 575.86C60.7176 575.775 60.7868 575.637 60.7868 575.445V575.408C60.7868 574.942 60.6554 574.582 60.3926 574.326C60.1334 574.071 59.7463 573.943 59.2314 573.943C58.6952 573.943 58.2726 574.062 57.9637 574.3C57.6583 574.534 57.447 574.795 57.3298 575.083L55.833 574.742C56.0105 574.245 56.2698 573.843 56.6107 573.538C56.9551 573.229 57.3511 573.005 57.7985 572.867C58.246 572.725 58.7165 572.654 59.2101 572.654C59.5368 572.654 59.883 572.693 60.2488 572.771C60.6181 572.845 60.9626 572.984 61.2822 573.186C61.6053 573.389 61.8699 573.678 62.0759 574.055C62.2818 574.427 62.3848 574.912 62.3848 575.509V580.942H60.8294V579.823H60.7655C60.6625 580.029 60.508 580.232 60.3021 580.431C60.0961 580.63 59.8315 580.795 59.5084 580.926C59.1852 581.057 58.7982 581.123 58.3472 581.123ZM58.6934 579.845C59.1338 579.845 59.5102 579.758 59.8227 579.584C60.1387 579.41 60.3784 579.182 60.5418 578.902C60.7087 578.618 60.7921 578.314 60.7921 577.991V576.936C60.7353 576.993 60.6252 577.046 60.4619 577.096C60.3021 577.142 60.1192 577.183 59.9132 577.219C59.7073 577.251 59.5066 577.281 59.3113 577.309C59.116 577.334 58.9526 577.355 58.8213 577.373C58.5123 577.412 58.23 577.478 57.9743 577.57C57.7222 577.663 57.5198 577.796 57.3671 577.97C57.2179 578.14 57.1433 578.367 57.1433 578.652C57.1433 579.046 57.2889 579.344 57.5801 579.546C57.8713 579.745 58.2424 579.845 58.6934 579.845ZM65.651 578.167L65.6404 576.223H65.9174L69.1773 572.76H71.0843L67.3662 576.702H67.1159L65.651 578.167ZM64.1862 580.942V570.033H65.7789V580.942H64.1862ZM69.3531 580.942L66.4234 577.054L67.5207 575.94L71.308 580.942H69.3531ZM75.4554 571.45V570.033H83.8982V571.45H80.4944V580.942H78.8538V571.45H75.4554ZM87.5759 581.107C86.8088 581.107 86.1394 580.931 85.5677 580.58C84.996 580.228 84.5521 579.736 84.236 579.104C83.92 578.472 83.762 577.734 83.762 576.888C83.762 576.04 83.92 575.297 84.236 574.662C84.5521 574.026 84.996 573.533 85.5677 573.181C86.1394 572.829 86.8088 572.654 87.5759 572.654C88.3429 572.654 89.0123 572.829 89.584 573.181C90.1558 573.533 90.5997 574.026 90.9157 574.662C91.2318 575.297 91.3898 576.04 91.3898 576.888C91.3898 577.734 91.2318 578.472 90.9157 579.104C90.5997 579.736 90.1558 580.228 89.584 580.58C89.0123 580.931 88.3429 581.107 87.5759 581.107ZM87.5812 579.77C88.0784 579.77 88.4903 579.639 88.817 579.376C89.1437 579.113 89.3852 578.763 89.5414 578.327C89.7012 577.89 89.7811 577.409 89.7811 576.883C89.7811 576.361 89.7012 575.882 89.5414 575.445C89.3852 575.005 89.1437 574.651 88.817 574.385C88.4903 574.119 88.0784 573.985 87.5812 573.985C87.0805 573.985 86.665 574.119 86.3347 574.385C86.008 574.651 85.7648 575.005 85.605 575.445C85.4487 575.882 85.3706 576.361 85.3706 576.883C85.3706 577.409 85.4487 577.89 85.605 578.327C85.7648 578.763 86.008 579.113 86.3347 579.376C86.665 579.639 87.0805 579.77 87.5812 579.77ZM96.6668 572.76V574.039H92.1977V572.76H96.6668ZM93.3962 570.8H94.9889V578.54C94.9889 578.849 95.0351 579.081 95.1274 579.237C95.2197 579.39 95.3387 579.495 95.4843 579.552C95.6335 579.605 95.795 579.632 95.969 579.632C96.0969 579.632 96.2087 579.623 96.3046 579.605C96.4005 579.587 96.4751 579.573 96.5283 579.562L96.816 580.878C96.7236 580.914 96.5923 580.949 96.4218 580.985C96.2513 581.024 96.0383 581.045 95.7826 581.049C95.3636 581.056 94.9729 580.981 94.6107 580.825C94.2485 580.669 93.9555 580.427 93.7318 580.1C93.5081 579.774 93.3962 579.364 93.3962 578.87V570.8ZM100.49 581.123C99.9712 581.123 99.5025 581.027 99.0834 580.835C98.6644 580.64 98.3324 580.358 98.0873 579.989C97.8459 579.619 97.7251 579.166 97.7251 578.63C97.7251 578.169 97.8139 577.789 97.9915 577.49C98.169 577.192 98.4087 576.956 98.7106 576.782C99.0124 576.608 99.3498 576.476 99.7226 576.388C100.096 576.299 100.475 576.231 100.863 576.185C101.353 576.128 101.75 576.082 102.056 576.047C102.361 576.008 102.583 575.946 102.722 575.86C102.86 575.775 102.929 575.637 102.929 575.445V575.408C102.929 574.942 102.798 574.582 102.535 574.326C102.276 574.071 101.889 573.943 101.374 573.943C100.838 573.943 100.415 574.062 100.106 574.3C99.8008 574.534 99.5895 574.795 99.4723 575.083L97.9755 574.742C98.153 574.245 98.4123 573.843 98.7532 573.538C99.0976 573.229 99.4936 573.005 99.941 572.867C100.388 572.725 100.859 572.654 101.353 572.654C101.679 572.654 102.026 572.693 102.391 572.771C102.761 572.845 103.105 572.984 103.425 573.186C103.748 573.389 104.012 573.678 104.218 574.055C104.424 574.427 104.527 574.912 104.527 575.509V580.942H102.972V579.823H102.908C102.805 580.029 102.651 580.232 102.445 580.431C102.239 580.63 101.974 580.795 101.651 580.926C101.328 581.057 100.941 581.123 100.49 581.123ZM100.836 579.845C101.276 579.845 101.653 579.758 101.965 579.584C102.281 579.41 102.521 579.182 102.684 578.902C102.851 578.618 102.935 578.314 102.935 577.991V576.936C102.878 576.993 102.768 577.046 102.604 577.096C102.445 577.142 102.262 577.183 102.056 577.219C101.85 577.251 101.649 577.281 101.454 577.309C101.258 577.334 101.095 577.355 100.964 577.373C100.655 577.412 100.372 577.478 100.117 577.57C99.8647 577.663 99.6623 577.796 99.5096 577.97C99.3604 578.14 99.2858 578.367 99.2858 578.652C99.2858 579.046 99.4314 579.344 99.7226 579.546C100.014 579.745 100.385 579.845 100.836 579.845ZM107.921 570.033V580.942H106.329V570.033H107.921Z" fill="white"/>
<path d="M26.5266 607.079V596.17H28.1726V601.379H28.3058L32.8814 596.17H34.9535L30.5536 601.081L34.9695 607.079H32.9879L29.4616 602.205L28.1726 603.686V607.079H26.5266ZM38.4208 607.26C37.9023 607.26 37.4336 607.164 37.0145 606.972C36.5955 606.777 36.2635 606.495 36.0184 606.125C35.7769 605.756 35.6562 605.303 35.6562 604.767C35.6562 604.305 35.745 603.925 35.9225 603.627C36.1001 603.329 36.3398 603.093 36.6416 602.919C36.9435 602.745 37.2809 602.613 37.6537 602.524C38.0266 602.436 38.4066 602.368 38.7936 602.322C39.2837 602.265 39.6814 602.219 39.9868 602.183C40.2922 602.144 40.5142 602.082 40.6527 601.997C40.7912 601.912 40.8604 601.773 40.8604 601.582V601.544C40.8604 601.079 40.729 600.719 40.4662 600.463C40.207 600.207 39.8199 600.079 39.305 600.079C38.7688 600.079 38.3462 600.198 38.0372 600.436C37.7318 600.671 37.5206 600.932 37.4034 601.219L35.9066 600.878C36.0841 600.381 36.3434 599.98 36.6843 599.675C37.0287 599.366 37.4247 599.142 37.8721 599.003C38.3196 598.861 38.7901 598.79 39.2837 598.79C39.6104 598.79 39.9566 598.829 40.3224 598.908C40.6917 598.982 41.0362 599.121 41.3558 599.323C41.6789 599.525 41.9435 599.815 42.1495 600.191C42.3554 600.564 42.4584 601.049 42.4584 601.645V607.079H40.903V605.96H40.8391C40.7361 606.166 40.5816 606.369 40.3757 606.567C40.1697 606.766 39.9051 606.931 39.582 607.063C39.2588 607.194 38.8718 607.26 38.4208 607.26ZM38.767 605.981C39.2073 605.981 39.5838 605.894 39.8963 605.72C40.2123 605.546 40.452 605.319 40.6154 605.039C40.7823 604.755 40.8657 604.451 40.8657 604.128V603.073C40.8089 603.13 40.6988 603.183 40.5355 603.233C40.3757 603.279 40.1928 603.32 39.9868 603.355C39.7809 603.387 39.5802 603.418 39.3849 603.446C39.1896 603.471 39.0262 603.492 38.8948 603.51C38.5859 603.549 38.3036 603.615 38.0479 603.707C37.7958 603.799 37.5934 603.932 37.4407 604.106C37.2915 604.277 37.2169 604.504 37.2169 604.788C37.2169 605.182 37.3625 605.481 37.6537 605.683C37.9449 605.882 38.316 605.981 38.767 605.981ZM44.2598 607.079V598.897H45.7992V600.197H45.8844C46.0336 599.756 46.2963 599.41 46.6728 599.158C47.0527 598.902 47.4824 598.774 47.9618 598.774C48.0613 598.774 48.1784 598.778 48.3134 598.785C48.4519 598.792 48.5602 598.801 48.6383 598.812V600.335C48.5744 600.317 48.4608 600.298 48.2974 600.277C48.1341 600.252 47.9707 600.239 47.8074 600.239C47.4309 600.239 47.0954 600.319 46.8006 600.479C46.5094 600.635 46.2786 600.854 46.1081 601.134C45.9377 601.411 45.8525 601.727 45.8525 602.082V607.079H44.2598ZM49.8244 607.079V596.17H51.4171V600.223H51.513C51.6053 600.053 51.7385 599.856 51.9125 599.632C52.0865 599.408 52.328 599.213 52.6369 599.046C52.9459 598.876 53.3543 598.79 53.8621 598.79C54.5226 598.79 55.1121 598.957 55.6306 599.291C56.149 599.625 56.5556 600.106 56.8504 600.735C57.1487 601.363 57.2978 602.12 57.2978 603.004C57.2978 603.888 57.1504 604.646 56.8557 605.278C56.561 605.907 56.1561 606.392 55.6412 606.732C55.1263 607.07 54.5386 607.239 53.8781 607.239C53.3809 607.239 52.9743 607.155 52.6583 606.988C52.3458 606.821 52.1007 606.626 51.9232 606.402C51.7456 606.179 51.6089 605.98 51.513 605.806H51.3798V607.079H49.8244ZM51.3852 602.988C51.3852 603.563 51.4686 604.067 51.6355 604.501C51.8024 604.934 52.0439 605.273 52.36 605.518C52.676 605.759 53.0631 605.88 53.5212 605.88C53.997 605.88 54.3948 605.754 54.7144 605.502C55.034 605.246 55.2754 604.9 55.4388 604.463C55.6057 604.027 55.6891 603.535 55.6891 602.988C55.6891 602.448 55.6075 601.963 55.4441 601.534C55.2843 601.104 55.0428 600.765 54.7197 600.516C54.4001 600.268 54.0006 600.143 53.5212 600.143C53.0595 600.143 52.6689 600.262 52.3493 600.5C52.0333 600.738 51.7936 601.07 51.6302 601.496C51.4668 601.922 51.3852 602.42 51.3852 602.988ZM62.2126 607.244C61.4456 607.244 60.7762 607.068 60.2045 606.717C59.6327 606.365 59.1888 605.873 58.8728 605.241C58.5567 604.609 58.3987 603.87 58.3987 603.025C58.3987 602.176 58.5567 601.434 58.8728 600.799C59.1888 600.163 59.6327 599.669 60.2045 599.318C60.7762 598.966 61.4456 598.79 62.2126 598.79C62.9797 598.79 63.6491 598.966 64.2208 599.318C64.7925 599.669 65.2364 600.163 65.5525 600.799C65.8685 601.434 66.0266 602.176 66.0266 603.025C66.0266 603.87 65.8685 604.609 65.5525 605.241C65.2364 605.873 64.7925 606.365 64.2208 606.717C63.6491 607.068 62.9797 607.244 62.2126 607.244ZM62.218 605.907C62.7151 605.907 63.1271 605.775 63.4538 605.513C63.7805 605.25 64.0219 604.9 64.1782 604.463C64.338 604.027 64.4179 603.545 64.4179 603.02C64.4179 602.498 64.338 602.018 64.1782 601.582C64.0219 601.141 63.7805 600.788 63.4538 600.522C63.1271 600.255 62.7151 600.122 62.218 600.122C61.7172 600.122 61.3018 600.255 60.9715 600.522C60.6448 600.788 60.4016 601.141 60.2418 601.582C60.0855 602.018 60.0074 602.498 60.0074 603.02C60.0074 603.545 60.0855 604.027 60.2418 604.463C60.4016 604.9 60.6448 605.25 60.9715 605.513C61.3018 605.775 61.7172 605.907 62.218 605.907ZM69.077 602.221V607.079H67.4843V596.17H69.0557V600.229H69.1569C69.3487 599.788 69.6417 599.438 70.0358 599.179C70.43 598.92 70.9449 598.79 71.5806 598.79C72.1417 598.79 72.6317 598.906 73.0507 599.137C73.4733 599.367 73.8 599.712 74.0309 600.17C74.2652 600.625 74.3824 601.193 74.3824 601.875V607.079H72.7897V602.066C72.7897 601.466 72.6353 601.001 72.3263 600.671C72.0174 600.337 71.5877 600.17 71.0373 600.17C70.6608 600.17 70.3235 600.25 70.0252 600.41C69.7304 600.57 69.4978 600.804 69.3274 601.113C69.1605 601.418 69.077 601.788 69.077 602.221ZM76.1878 607.079V598.897H77.7805V607.079H76.1878ZM76.9921 597.634C76.7151 597.634 76.4772 597.542 76.2783 597.357C76.083 597.169 75.9854 596.946 75.9854 596.686C75.9854 596.424 76.083 596.2 76.2783 596.015C76.4772 595.827 76.7151 595.733 76.9921 595.733C77.2691 595.733 77.5053 595.827 77.7006 596.015C77.8994 596.2 77.9989 596.424 77.9989 596.686C77.9989 596.946 77.8994 597.169 77.7006 597.357C77.5053 597.542 77.2691 597.634 76.9921 597.634ZM82.666 607.239C82.0055 607.239 81.416 607.07 80.8975 606.732C80.3826 606.392 79.9778 605.907 79.683 605.278C79.3918 604.646 79.2462 603.888 79.2462 603.004C79.2462 602.12 79.3936 601.363 79.6884 600.735C79.9866 600.106 80.395 599.625 80.9135 599.291C81.432 598.957 82.0197 598.79 82.6766 598.79C83.1844 598.79 83.5928 598.876 83.9018 599.046C84.2143 599.213 84.4558 599.408 84.6262 599.632C84.8002 599.856 84.9352 600.053 85.031 600.223H85.1269V596.17H86.7196V607.079H85.1642V605.806H85.031C84.9352 605.98 84.7967 606.179 84.6156 606.402C84.438 606.626 84.193 606.821 83.8805 606.988C83.568 607.155 83.1631 607.239 82.666 607.239ZM83.0175 605.88C83.4756 605.88 83.8627 605.759 84.1788 605.518C84.4984 605.273 84.7398 604.934 84.9032 604.501C85.0701 604.067 85.1536 603.563 85.1536 602.988C85.1536 602.42 85.0719 601.922 84.9085 601.496C84.7452 601.07 84.5055 600.738 84.1894 600.5C83.8734 600.262 83.4827 600.143 83.0175 600.143C82.5381 600.143 82.1386 600.268 81.819 600.516C81.4994 600.765 81.258 601.104 81.0946 601.534C80.9348 601.963 80.8549 602.448 80.8549 602.988C80.8549 603.535 80.9366 604.027 81.0999 604.463C81.2633 604.9 81.5048 605.246 81.8244 605.502C82.1475 605.754 82.5452 605.88 83.0175 605.88ZM88.6728 607.079V598.897H90.2122V600.197H90.2974C90.4466 599.756 90.7094 599.41 91.0858 599.158C91.4657 598.902 91.8954 598.774 92.3748 598.774C92.4743 598.774 92.5915 598.778 92.7264 598.785C92.8649 598.792 92.9732 598.801 93.0513 598.812V600.335C92.9874 600.317 92.8738 600.298 92.7104 600.277C92.5471 600.252 92.3837 600.239 92.2204 600.239C91.8439 600.239 91.5084 600.319 91.2136 600.479C90.9224 600.635 90.6916 600.854 90.5211 601.134C90.3507 601.411 90.2655 601.727 90.2655 602.082V607.079H88.6728ZM96.4174 607.26C95.8989 607.26 95.4302 607.164 95.0112 606.972C94.5921 606.777 94.2601 606.495 94.0151 606.125C93.7736 605.756 93.6529 605.303 93.6529 604.767C93.6529 604.305 93.7416 603.925 93.9192 603.627C94.0967 603.329 94.3364 603.093 94.6383 602.919C94.9401 602.745 95.2775 602.613 95.6504 602.524C96.0232 602.436 96.4032 602.368 96.7903 602.322C97.2803 602.265 97.6781 602.219 97.9835 602.183C98.2889 602.144 98.5108 602.082 98.6493 601.997C98.7878 601.912 98.857 601.773 98.857 601.582V601.544C98.857 601.079 98.7256 600.719 98.4629 600.463C98.2036 600.207 97.8166 600.079 97.3016 600.079C96.7654 600.079 96.3428 600.198 96.0339 600.436C95.7285 600.671 95.5172 600.932 95.4 601.219L93.9032 600.878C94.0808 600.381 94.34 599.98 94.6809 599.675C95.0254 599.366 95.4213 599.142 95.8688 599.003C96.3162 598.861 96.7867 598.79 97.2803 598.79C97.607 598.79 97.9533 598.829 98.319 598.908C98.6884 598.982 99.0328 599.121 99.3524 599.323C99.6756 599.525 99.9401 599.815 100.146 600.191C100.352 600.564 100.455 601.049 100.455 601.645V607.079H98.8997V605.96H98.8357C98.7328 606.166 98.5783 606.369 98.3723 606.567C98.1663 606.766 97.9018 606.931 97.5786 607.063C97.2555 607.194 96.8684 607.26 96.4174 607.26ZM96.7636 605.981C97.204 605.981 97.5804 605.894 97.8929 605.72C98.209 605.546 98.4487 605.319 98.612 605.039C98.7789 604.755 98.8624 604.451 98.8624 604.128V603.073C98.8055 603.13 98.6955 603.183 98.5321 603.233C98.3723 603.279 98.1894 603.32 97.9835 603.355C97.7775 603.387 97.5769 603.418 97.3815 603.446C97.1862 603.471 97.0229 603.492 96.8915 603.51C96.5825 603.549 96.3002 603.615 96.0445 603.707C95.7924 603.799 95.59 603.932 95.4373 604.106C95.2881 604.277 95.2136 604.504 95.2136 604.788C95.2136 605.182 95.3592 605.481 95.6504 605.683C95.9416 605.882 96.3127 605.981 96.7636 605.981ZM106.076 598.897V600.175H101.607V598.897H106.076ZM102.805 596.937H104.398V604.676C104.398 604.985 104.444 605.218 104.536 605.374C104.629 605.527 104.748 605.632 104.893 605.688C105.042 605.742 105.204 605.768 105.378 605.768C105.506 605.768 105.618 605.759 105.713 605.742C105.809 605.724 105.884 605.71 105.937 605.699L106.225 607.015C106.132 607.05 106.001 607.086 105.831 607.121C105.66 607.16 105.447 607.182 105.191 607.185C104.772 607.192 104.382 607.118 104.02 606.962C103.657 606.805 103.364 606.564 103.141 606.237C102.917 605.91 102.805 605.5 102.805 605.007V596.937ZM110.757 597.587V596.17H119.2V597.587H115.796V607.079H114.155V597.587H110.757ZM122.878 607.244C122.111 607.244 121.441 607.068 120.869 606.717C120.298 606.365 119.854 605.873 119.538 605.241C119.222 604.609 119.064 603.87 119.064 603.025C119.064 602.176 119.222 601.434 119.538 600.799C119.854 600.163 120.298 599.669 120.869 599.318C121.441 598.966 122.111 598.79 122.878 598.79C123.645 598.79 124.314 598.966 124.886 599.318C125.457 599.669 125.901 600.163 126.217 600.799C126.533 601.434 126.691 602.176 126.691 603.025C126.691 603.87 126.533 604.609 126.217 605.241C125.901 605.873 125.457 606.365 124.886 606.717C124.314 607.068 123.645 607.244 122.878 607.244ZM122.883 605.907C123.38 605.907 123.792 605.775 124.119 605.513C124.445 605.25 124.687 604.9 124.843 604.463C125.003 604.027 125.083 603.545 125.083 603.02C125.083 602.498 125.003 602.018 124.843 601.582C124.687 601.141 124.445 600.788 124.119 600.522C123.792 600.255 123.38 600.122 122.883 600.122C122.382 600.122 121.967 600.255 121.636 600.522C121.31 600.788 121.066 601.141 120.907 601.582C120.75 602.018 120.672 602.498 120.672 603.02C120.672 603.545 120.75 604.027 120.907 604.463C121.066 604.9 121.31 605.25 121.636 605.513C121.967 605.775 122.382 605.907 122.883 605.907ZM131.969 598.897V600.175H127.499V598.897H131.969ZM128.698 596.937H130.291V604.676C130.291 604.985 130.337 605.218 130.429 605.374C130.521 605.527 130.64 605.632 130.786 605.688C130.935 605.742 131.097 605.768 131.271 605.768C131.399 605.768 131.51 605.759 131.606 605.742C131.702 605.724 131.777 605.71 131.83 605.699L132.118 607.015C132.025 607.05 131.894 607.086 131.723 607.121C131.553 607.16 131.34 607.182 131.084 607.185C130.665 607.192 130.275 607.118 129.912 606.962C129.55 606.805 129.257 606.564 129.033 606.237C128.81 605.91 128.698 605.5 128.698 605.007V596.937ZM135.791 607.26C135.273 607.26 134.804 607.164 134.385 606.972C133.966 606.777 133.634 606.495 133.389 606.125C133.148 605.756 133.027 605.303 133.027 604.767C133.027 604.305 133.116 603.925 133.293 603.627C133.471 603.329 133.71 603.093 134.012 602.919C134.314 602.745 134.651 602.613 135.024 602.524C135.397 602.436 135.777 602.368 136.164 602.322C136.654 602.265 137.052 602.219 137.357 602.183C137.663 602.144 137.885 602.082 138.023 601.997C138.162 601.912 138.231 601.773 138.231 601.582V601.544C138.231 601.079 138.1 600.719 137.837 600.463C137.578 600.207 137.19 600.079 136.676 600.079C136.139 600.079 135.717 600.198 135.408 600.436C135.102 600.671 134.891 600.932 134.774 601.219L133.277 600.878C133.455 600.381 133.714 599.98 134.055 599.675C134.399 599.366 134.795 599.142 135.243 599.003C135.69 598.861 136.161 598.79 136.654 598.79C136.981 598.79 137.327 598.829 137.693 598.908C138.062 598.982 138.407 599.121 138.726 599.323C139.05 599.525 139.314 599.815 139.52 600.191C139.726 600.564 139.829 601.049 139.829 601.645V607.079H138.274V605.96H138.21C138.107 606.166 137.952 606.369 137.746 606.567C137.54 606.766 137.276 606.931 136.953 607.063C136.629 607.194 136.242 607.26 135.791 607.26ZM136.138 605.981C136.578 605.981 136.954 605.894 137.267 605.72C137.583 605.546 137.823 605.319 137.986 605.039C138.153 604.755 138.236 604.451 138.236 604.128V603.073C138.179 603.13 138.069 603.183 137.906 603.233C137.746 603.279 137.563 603.32 137.357 603.355C137.151 603.387 136.951 603.418 136.755 603.446C136.56 603.471 136.397 603.492 136.265 603.51C135.956 603.549 135.674 603.615 135.418 603.707C135.166 603.799 134.964 603.932 134.811 604.106C134.662 604.277 134.588 604.504 134.588 604.788C134.588 605.182 134.733 605.481 135.024 605.683C135.315 605.882 135.687 605.981 136.138 605.981ZM143.223 596.17V607.079H141.63V596.17H143.223Z" fill="white"/>
<path d="M32.4766 625.172C32.4197 624.668 32.1854 624.277 31.7734 624C31.3615 623.72 30.843 623.579 30.218 623.579C29.7706 623.579 29.3835 623.65 29.0568 623.793C28.7301 623.931 28.4762 624.123 28.2951 624.368C28.1175 624.609 28.0288 624.884 28.0288 625.193C28.0288 625.453 28.0891 625.676 28.2099 625.865C28.3342 626.053 28.4957 626.211 28.6946 626.339C28.897 626.463 29.1136 626.568 29.3445 626.653C29.5753 626.735 29.7972 626.802 30.0103 626.855L31.0756 627.132C31.4237 627.218 31.7805 627.333 32.1463 627.479C32.5121 627.624 32.8512 627.816 33.1637 628.054C33.4762 628.292 33.7283 628.587 33.9201 628.938C34.1154 629.29 34.2131 629.71 34.2131 630.201C34.2131 630.818 34.0533 631.367 33.7337 631.846C33.4176 632.326 32.9577 632.704 32.354 632.981C31.7539 633.258 31.0277 633.397 30.1754 633.397C29.3587 633.397 28.652 633.267 28.0554 633.008C27.4588 632.748 26.9918 632.381 26.6545 631.905C26.3171 631.426 26.1307 630.857 26.0952 630.201H27.7464C27.7784 630.595 27.9063 630.923 28.13 631.186C28.3572 631.445 28.6467 631.639 28.9982 631.767C29.3533 631.891 29.7422 631.953 30.1648 631.953C30.63 631.953 31.0437 631.88 31.4059 631.735C31.7717 631.585 32.0593 631.38 32.2688 631.117C32.4783 630.85 32.5831 630.54 32.5831 630.185C32.5831 629.861 32.4908 629.597 32.3061 629.391C32.125 629.185 31.8782 629.014 31.5657 628.88C31.2567 628.745 30.907 628.626 30.5163 628.523L29.2273 628.171C28.3537 627.933 27.6612 627.583 27.1499 627.122C26.642 626.66 26.3881 626.049 26.3881 625.289C26.3881 624.661 26.5586 624.112 26.8995 623.643C27.2404 623.175 27.7021 622.811 28.2844 622.551C28.8668 622.289 29.5238 622.157 30.2553 622.157C30.994 622.157 31.6456 622.287 32.2102 622.546C32.7784 622.805 33.2259 623.162 33.5526 623.617C33.8793 624.068 34.0497 624.586 34.0639 625.172H32.4766ZM39.2584 633.381C38.4523 633.381 37.758 633.208 37.1757 632.864C36.5968 632.516 36.1494 632.028 35.8333 631.399C35.5208 630.767 35.3646 630.027 35.3646 629.178C35.3646 628.34 35.5208 627.601 35.8333 626.962C36.1494 626.323 36.5897 625.824 37.1543 625.465C37.7225 625.106 38.3866 624.927 39.1465 624.927C39.6082 624.927 40.0556 625.003 40.4889 625.156C40.9221 625.309 41.3109 625.549 41.6554 625.875C41.9999 626.202 42.2715 626.626 42.4704 627.148C42.6693 627.667 42.7687 628.297 42.7687 629.039V629.604H36.2648V628.411H41.208C41.208 627.992 41.1227 627.621 40.9523 627.297C40.7818 626.971 40.5421 626.713 40.2332 626.525C39.9278 626.337 39.5691 626.243 39.1572 626.243C38.7097 626.243 38.3191 626.353 37.9853 626.573C37.6551 626.79 37.3994 627.074 37.2183 627.425C37.0407 627.773 36.9519 628.152 36.9519 628.56V629.492C36.9519 630.039 37.0478 630.504 37.2396 630.888C37.4349 631.271 37.7065 631.564 38.0546 631.767C38.4026 631.965 38.8092 632.065 39.2744 632.065C39.5762 632.065 39.8514 632.022 40.1 631.937C40.3486 631.848 40.5634 631.717 40.7445 631.543C40.9257 631.369 41.0641 631.154 41.16 630.898L42.6675 631.17C42.5467 631.614 42.3301 632.003 42.0176 632.337C41.7087 632.667 41.3198 632.924 40.8511 633.109C40.3859 633.29 39.855 633.381 39.2584 633.381ZM44.2158 633.215V625.034H45.7552V626.333H45.8405C45.9896 625.893 46.2524 625.547 46.6288 625.295C47.0088 625.039 47.4385 624.911 47.9179 624.911C48.0173 624.911 48.1345 624.915 48.2694 624.922C48.4079 624.929 48.5163 624.938 48.5944 624.948V626.472C48.5305 626.454 48.4168 626.435 48.2535 626.413C48.0901 626.388 47.9268 626.376 47.7634 626.376C47.387 626.376 47.0514 626.456 46.7567 626.616C46.4655 626.772 46.2346 626.99 46.0642 627.271C45.8937 627.548 45.8085 627.864 45.8085 628.219V633.215H44.2158ZM51.9605 633.397C51.442 633.397 50.9732 633.301 50.5542 633.109C50.1352 632.914 49.8031 632.631 49.5581 632.262C49.3166 631.893 49.1959 631.44 49.1959 630.904C49.1959 630.442 49.2847 630.062 49.4622 629.764C49.6398 629.465 49.8795 629.229 50.1813 629.055C50.4832 628.881 50.8205 628.75 51.1934 628.661C51.5663 628.572 51.9463 628.505 52.3333 628.459C52.8234 628.402 53.2211 628.356 53.5265 628.32C53.8319 628.281 54.0539 628.219 54.1923 628.134C54.3308 628.049 54.4001 627.91 54.4001 627.718V627.681C54.4001 627.216 54.2687 626.855 54.0059 626.6C53.7467 626.344 53.3596 626.216 52.8447 626.216C52.3085 626.216 51.8859 626.335 51.5769 626.573C51.2715 626.807 51.0602 627.068 50.9431 627.356L49.4463 627.015C49.6238 626.518 49.883 626.117 50.2239 625.811C50.5684 625.502 50.9644 625.279 51.4118 625.14C51.8592 624.998 52.3298 624.927 52.8234 624.927C53.1501 624.927 53.4963 624.966 53.8621 625.044C54.2314 625.119 54.5759 625.257 54.8955 625.46C55.2186 625.662 55.4832 625.952 55.6891 626.328C55.8951 626.701 55.9981 627.186 55.9981 627.782V633.215H54.4427V632.097H54.3788C54.2758 632.303 54.1213 632.505 53.9154 632.704C53.7094 632.903 53.4448 633.068 53.1217 633.199C52.7985 633.331 52.4114 633.397 51.9605 633.397ZM52.3067 632.118C52.747 632.118 53.1235 632.031 53.436 631.857C53.752 631.683 53.9917 631.456 54.1551 631.175C54.322 630.891 54.4054 630.588 54.4054 630.264V629.21C54.3486 629.267 54.2385 629.32 54.0752 629.37C53.9154 629.416 53.7325 629.457 53.5265 629.492C53.3205 629.524 53.1199 629.554 52.9246 629.583C52.7293 629.607 52.5659 629.629 52.4345 629.647C52.1256 629.686 51.8433 629.751 51.5876 629.844C51.3355 629.936 51.133 630.069 50.9803 630.243C50.8312 630.414 50.7566 630.641 50.7566 630.925C50.7566 631.319 50.9022 631.617 51.1934 631.82C51.4846 632.019 51.8557 632.118 52.3067 632.118ZM61.6187 625.034V626.312H57.1496V625.034H61.6187ZM58.3481 623.073H59.9408V630.813C59.9408 631.122 59.987 631.355 60.0793 631.511C60.1716 631.664 60.2906 631.768 60.4362 631.825C60.5853 631.878 60.7469 631.905 60.9209 631.905C61.0487 631.905 61.1606 631.896 61.2565 631.878C61.3524 631.861 61.4269 631.846 61.4802 631.836L61.7679 633.152C61.6755 633.187 61.5441 633.223 61.3737 633.258C61.2032 633.297 60.9902 633.318 60.7345 633.322C60.3154 633.329 59.9248 633.255 59.5626 633.098C59.2004 632.942 58.9074 632.701 58.6837 632.374C58.46 632.047 58.3481 631.637 58.3481 631.143V623.073Z" fill="white"/>
<path d="M26.5266 659.352V648.443H30.4151C31.2638 648.443 31.967 648.598 32.5245 648.907C33.082 649.215 33.4993 649.638 33.7763 650.174C34.0533 650.707 34.1918 651.307 34.1918 651.975C34.1918 652.646 34.0515 653.25 33.771 653.786C33.494 654.318 33.0749 654.741 32.5138 655.054C31.9563 655.362 31.255 655.517 30.4098 655.517H27.7358V654.121H30.2607C30.7969 654.121 31.2319 654.029 31.5657 653.844C31.8995 653.656 32.1445 653.4 32.3008 653.077C32.457 652.754 32.5352 652.387 32.5352 651.975C32.5352 651.563 32.457 651.197 32.3008 650.877C32.1445 650.558 31.8977 650.307 31.5604 650.126C31.2266 649.945 30.7862 649.855 30.2393 649.855H28.1726V659.352H26.5266ZM35.6735 659.352V651.17H37.2129V652.47H37.2982C37.4473 652.03 37.7101 651.683 38.0865 651.431C38.4665 651.176 38.8962 651.048 39.3756 651.048C39.475 651.048 39.5922 651.051 39.7271 651.058C39.8656 651.066 39.9739 651.074 40.0521 651.085V652.609C39.9882 652.591 39.8745 652.571 39.7112 652.55C39.5478 652.525 39.3845 652.513 39.2211 652.513C38.8447 652.513 38.5091 652.593 38.2144 652.752C37.9232 652.909 37.6923 653.127 37.5219 653.408C37.3514 653.685 37.2662 654.001 37.2662 654.356V659.352H35.6735ZM44.2638 659.517C43.4967 659.517 42.8273 659.342 42.2556 658.99C41.6839 658.638 41.24 658.147 40.9239 657.514C40.6079 656.882 40.4498 656.144 40.4498 655.299C40.4498 654.45 40.6079 653.708 40.9239 653.072C41.24 652.436 41.6839 651.943 42.2556 651.591C42.8273 651.24 43.4967 651.064 44.2638 651.064C45.0308 651.064 45.7002 651.24 46.2719 651.591C46.8437 651.943 47.2876 652.436 47.6036 653.072C47.9197 653.708 48.0777 654.45 48.0777 655.299C48.0777 656.144 47.9197 656.882 47.6036 657.514C47.2876 658.147 46.8437 658.638 46.2719 658.99C45.7002 659.342 45.0308 659.517 44.2638 659.517ZM44.2691 658.18C44.7662 658.18 45.1782 658.049 45.5049 657.786C45.8316 657.523 46.0731 657.174 46.2293 656.737C46.3891 656.3 46.469 655.819 46.469 655.293C46.469 654.771 46.3891 654.292 46.2293 653.855C46.0731 653.415 45.8316 653.061 45.5049 652.795C45.1782 652.529 44.7662 652.395 44.2691 652.395C43.7684 652.395 43.3529 652.529 43.0226 652.795C42.6959 653.061 42.4527 653.415 42.2929 653.855C42.1366 654.292 42.0585 654.771 42.0585 655.293C42.0585 655.819 42.1366 656.3 42.2929 656.737C42.4527 657.174 42.6959 657.523 43.0226 657.786C43.3529 658.049 43.7684 658.18 44.2691 658.18ZM53.3547 651.17V652.449H48.8856V651.17H53.3547ZM50.0841 649.21H51.6768V656.95C51.6768 657.259 51.723 657.491 51.8153 657.648C51.9076 657.8 52.0266 657.905 52.1722 657.962C52.3213 658.015 52.4829 658.042 52.6569 658.042C52.7848 658.042 52.8966 658.033 52.9925 658.015C53.0884 657.997 53.163 657.983 53.2162 657.973L53.5039 659.288C53.4115 659.324 53.2801 659.359 53.1097 659.395C52.9392 659.434 52.7262 659.455 52.4705 659.459C52.0515 659.466 51.6608 659.391 51.2986 659.235C50.9364 659.079 50.6434 658.837 50.4197 658.511C50.196 658.184 50.0841 657.774 50.0841 657.28V649.21ZM58.2349 659.517C57.4288 659.517 56.7346 659.345 56.1522 659.001C55.5733 658.653 55.1259 658.164 54.8098 657.536C54.4973 656.904 54.3411 656.163 54.3411 655.315C54.3411 654.476 54.4973 653.738 54.8098 653.099C55.1259 652.459 55.5662 651.96 56.1309 651.602C56.699 651.243 57.3631 651.064 58.1231 651.064C58.5847 651.064 59.0321 651.14 59.4654 651.293C59.8986 651.446 60.2875 651.685 60.6319 652.012C60.9764 652.339 61.2481 652.763 61.4469 653.285C61.6458 653.804 61.7452 654.434 61.7452 655.176V655.741H55.2413V654.547H60.1845C60.1845 654.128 60.0993 653.757 59.9288 653.434C59.7584 653.107 59.5186 652.85 59.2097 652.662C58.9043 652.474 58.5456 652.38 58.1337 652.38C57.6863 652.38 57.2956 652.49 56.9618 652.71C56.6316 652.926 56.3759 653.21 56.1948 653.562C56.0172 653.91 55.9285 654.288 55.9285 654.697V655.629C55.9285 656.176 56.0243 656.641 56.2161 657.024C56.4114 657.408 56.6831 657.701 57.0311 657.903C57.3791 658.102 57.7857 658.202 58.2509 658.202C58.5527 658.202 58.828 658.159 59.0765 658.074C59.3251 657.985 59.54 657.854 59.7211 657.68C59.9022 657.506 60.0407 657.291 60.1365 657.035L61.644 657.307C61.5233 657.751 61.3066 658.139 60.9941 658.473C60.6852 658.804 60.2963 659.061 59.8276 659.246C59.3624 659.427 58.8315 659.517 58.2349 659.517ZM63.1923 659.352V651.17H64.785V659.352H63.1923ZM63.9967 649.908C63.7197 649.908 63.4818 649.816 63.2829 649.631C63.0876 649.443 62.9899 649.219 62.9899 648.96C62.9899 648.697 63.0876 648.473 63.2829 648.289C63.4818 648.1 63.7197 648.006 63.9967 648.006C64.2737 648.006 64.5098 648.1 64.7051 648.289C64.904 648.473 65.0034 648.697 65.0034 648.96C65.0034 649.219 64.904 649.443 64.7051 649.631C64.5098 649.816 64.2737 649.908 63.9967 649.908ZM68.2004 654.494V659.352H66.6077V651.17H68.1365V652.502H68.2377C68.4259 652.069 68.7206 651.721 69.1219 651.458C69.5267 651.195 70.0363 651.064 70.6507 651.064C71.2082 651.064 71.6965 651.181 72.1155 651.415C72.5345 651.646 72.8595 651.991 73.0903 652.449C73.3211 652.907 73.4365 653.473 73.4365 654.148V659.352H71.8439V654.34C71.8439 653.747 71.6894 653.283 71.3804 652.949C71.0715 652.612 70.6471 652.443 70.1073 652.443C69.738 652.443 69.4095 652.523 69.1219 652.683C68.8378 652.843 68.6123 653.077 68.4454 653.386C68.2821 653.692 68.2004 654.061 68.2004 654.494Z" fill="white"/>
<path d="M27.4801 674.58L30.5163 683.465H30.6388L33.6751 674.58H35.4542L31.5284 685.489H29.6268L25.701 674.58H27.4801ZM36.5817 685.489V677.307H38.1744V685.489H36.5817ZM37.3861 676.045C37.1091 676.045 36.8711 675.953 36.6723 675.768C36.477 675.58 36.3793 675.356 36.3793 675.097C36.3793 674.834 36.477 674.61 36.6723 674.426C36.8711 674.237 37.1091 674.143 37.3861 674.143C37.663 674.143 37.8992 674.237 38.0945 674.426C38.2934 674.61 38.3928 674.834 38.3928 675.097C38.3928 675.356 38.2934 675.58 38.0945 675.768C37.8992 675.953 37.663 676.045 37.3861 676.045ZM43.8163 677.307V678.586H39.3472V677.307H43.8163ZM40.5457 675.347H42.1384V683.087C42.1384 683.396 42.1846 683.628 42.2769 683.785C42.3692 683.937 42.4882 684.042 42.6338 684.099C42.7829 684.152 42.9445 684.179 43.1185 684.179C43.2464 684.179 43.3582 684.17 43.4541 684.152C43.55 684.134 43.6246 684.12 43.6778 684.11L43.9655 685.425C43.8731 685.461 43.7417 685.496 43.5713 685.532C43.4008 685.571 43.1878 685.592 42.9321 685.596C42.5131 685.603 42.1224 685.528 41.7602 685.372C41.398 685.216 41.105 684.974 40.8813 684.648C40.6576 684.321 40.5457 683.911 40.5457 683.417V675.347ZM47.6392 685.67C47.1207 685.67 46.652 685.574 46.2329 685.383C45.8139 685.187 45.4819 684.905 45.2368 684.536C44.9953 684.166 44.8746 683.714 44.8746 683.177C44.8746 682.716 44.9634 682.336 45.1409 682.037C45.3185 681.739 45.5582 681.503 45.86 681.329C46.1619 681.155 46.4993 681.024 46.8721 680.935C47.245 680.846 47.625 680.779 48.012 680.732C48.5021 680.676 48.8998 680.629 49.2052 680.594C49.5106 680.555 49.7326 680.493 49.8711 680.407C50.0095 680.322 50.0788 680.184 50.0788 679.992V679.955C50.0788 679.489 49.9474 679.129 49.6846 678.873C49.4254 678.618 49.0383 678.49 48.5234 678.49C47.9872 678.49 47.5646 678.609 47.2556 678.847C46.9502 679.081 46.739 679.342 46.6218 679.63L45.125 679.289C45.3025 678.792 45.5618 678.39 45.9027 678.085C46.2471 677.776 46.6431 677.552 47.0905 677.414C47.538 677.272 48.0085 677.201 48.5021 677.201C48.8288 677.201 49.175 677.24 49.5408 677.318C49.9101 677.393 50.2546 677.531 50.5742 677.733C50.8973 677.936 51.1619 678.225 51.3679 678.602C51.5738 678.975 51.6768 679.459 51.6768 680.056V685.489H50.1214V684.371H50.0575C49.9545 684.576 49.8 684.779 49.5941 684.978C49.3881 685.177 49.1235 685.342 48.8004 685.473C48.4772 685.605 48.0902 685.67 47.6392 685.67ZM47.9854 684.392C48.4257 684.392 48.8022 684.305 49.1147 684.131C49.4307 683.957 49.6704 683.73 49.8338 683.449C50.0007 683.165 50.0841 682.861 50.0841 682.538V681.483C50.0273 681.54 49.9172 681.594 49.7539 681.643C49.5941 681.689 49.4112 681.73 49.2052 681.766C48.9993 681.798 48.7986 681.828 48.6033 681.856C48.408 681.881 48.2446 681.902 48.1132 681.92C47.8043 681.959 47.522 682.025 47.2663 682.117C47.0142 682.21 46.8118 682.343 46.6591 682.517C46.5099 682.687 46.4353 682.915 46.4353 683.199C46.4353 683.593 46.5809 683.891 46.8721 684.094C47.1633 684.292 47.5344 684.392 47.9854 684.392ZM53.4782 685.489V677.307H55.0069V678.639H55.1081C55.2786 678.188 55.5574 677.836 55.9444 677.584C56.3315 677.329 56.7949 677.201 57.3347 677.201C57.8816 677.201 58.3397 677.329 58.709 677.584C59.0819 677.84 59.3571 678.192 59.5346 678.639H59.6199C59.8152 678.202 60.1259 677.854 60.552 677.595C60.9782 677.332 61.486 677.201 62.0755 677.201C62.8177 677.201 63.4231 677.433 63.8919 677.899C64.3642 678.364 64.6003 679.065 64.6003 680.003V685.489H63.0076V680.152C63.0076 679.598 62.8567 679.197 62.5549 678.948C62.253 678.699 61.8926 678.575 61.4736 678.575C60.9551 678.575 60.552 678.735 60.2644 679.054C59.9767 679.371 59.8329 679.777 59.8329 680.274V685.489H58.2456V680.051C58.2456 679.607 58.1071 679.25 57.8301 678.98C57.5531 678.71 57.1927 678.575 56.7488 678.575C56.4469 678.575 56.1682 678.655 55.9125 678.815C55.6603 678.971 55.4562 679.189 55.2999 679.47C55.1472 679.75 55.0709 680.075 55.0709 680.445V685.489H53.4782ZM66.415 685.489V677.307H68.0077V685.489H66.415ZM67.2193 676.045C66.9423 676.045 66.7044 675.953 66.5056 675.768C66.3102 675.58 66.2126 675.356 66.2126 675.097C66.2126 674.834 66.3102 674.61 66.5056 674.426C66.7044 674.237 66.9423 674.143 67.2193 674.143C67.4963 674.143 67.7325 674.237 67.9278 674.426C68.1267 674.61 68.2261 674.834 68.2261 675.097C68.2261 675.356 68.1267 675.58 67.9278 675.768C67.7325 675.953 67.4963 676.045 67.2193 676.045ZM71.423 680.631V685.489H69.8304V677.307H71.3591V678.639H71.4603C71.6485 678.206 71.9433 677.858 72.3446 677.595C72.7494 677.332 73.259 677.201 73.8733 677.201C74.4309 677.201 74.9191 677.318 75.3382 677.552C75.7572 677.783 76.0821 678.128 76.313 678.586C76.5438 679.044 76.6592 679.61 76.6592 680.285V685.489H75.0665V680.477C75.0665 679.884 74.912 679.42 74.6031 679.086C74.2941 678.749 73.8698 678.58 73.33 678.58C72.9607 678.58 72.6322 678.66 72.3446 678.82C72.0605 678.98 71.835 679.214 71.6681 679.523C71.5047 679.829 71.423 680.198 71.423 680.631ZM85.7844 685.489H82.2528V674.58H85.8962C86.9651 674.58 87.8831 674.798 88.6501 675.235C89.4172 675.668 90.0049 676.292 90.4133 677.105C90.8252 677.915 91.0312 678.886 91.0312 680.019C91.0312 681.155 90.8234 682.132 90.4079 682.948C89.996 683.765 89.3994 684.394 88.6182 684.834C87.8369 685.271 86.8923 685.489 85.7844 685.489ZM83.8987 684.051H85.6938C86.5248 684.051 87.2155 683.895 87.7659 683.582C88.3163 683.266 88.7283 682.81 89.0017 682.213C89.2751 681.613 89.4119 680.882 89.4119 680.019C89.4119 679.163 89.2751 678.437 89.0017 677.84C88.7318 677.243 88.3288 676.791 87.7925 676.482C87.2563 676.173 86.5905 676.018 85.795 676.018H83.8987V684.051Z" fill="white"/>
<path d="M26.5266 711.626V700.717H33.2915V702.134H28.1726V705.458H32.8068V706.869H28.1726V711.626H26.5266ZM37.7935 711.791C36.9874 711.791 36.2932 711.619 35.7108 711.274C35.132 710.926 34.6845 710.438 34.3685 709.809C34.056 709.177 33.8997 708.437 33.8997 707.588C33.8997 706.75 34.056 706.012 34.3685 705.372C34.6845 704.733 35.1249 704.234 35.6895 703.875C36.2577 703.517 36.9217 703.338 37.6817 703.338C38.1433 703.338 38.5908 703.414 39.024 703.567C39.4573 703.719 39.8461 703.959 40.1906 704.286C40.535 704.612 40.8067 705.037 41.0056 705.559C41.2044 706.077 41.3038 706.708 41.3038 707.45V708.014H34.7999V706.821H39.7431C39.7431 706.402 39.6579 706.031 39.4874 705.708C39.317 705.381 39.0773 705.124 38.7683 704.936C38.4629 704.747 38.1043 704.653 37.6923 704.653C37.2449 704.653 36.8543 704.763 36.5205 704.983C36.1902 705.2 35.9345 705.484 35.7534 705.836C35.5759 706.184 35.4871 706.562 35.4871 706.97V707.902C35.4871 708.449 35.583 708.915 35.7747 709.298C35.97 709.682 36.2417 709.975 36.5897 710.177C36.9377 710.376 37.3443 710.475 37.8095 710.475C38.1114 710.475 38.3866 710.433 38.6352 710.347C38.8837 710.259 39.0986 710.127 39.2797 709.953C39.4608 709.779 39.5993 709.564 39.6952 709.309L41.2026 709.58C41.0819 710.024 40.8653 710.413 40.5528 710.747C40.2438 711.077 39.855 711.335 39.3862 711.519C38.921 711.7 38.3901 711.791 37.7935 711.791Z" fill="white"/>
<path d="M212.467 570.033V580.942H210.815V571.684H210.751L208.141 573.389V571.812L210.863 570.033H212.467ZM218.895 581.123C218.054 581.12 217.335 580.898 216.738 580.457C216.142 580.017 215.685 579.376 215.369 578.534C215.053 577.693 214.895 576.679 214.895 575.493C214.895 574.31 215.053 573.3 215.369 572.462C215.689 571.624 216.147 570.985 216.743 570.544C217.344 570.104 218.061 569.884 218.895 569.884C219.73 569.884 220.446 570.106 221.042 570.55C221.639 570.99 222.095 571.629 222.411 572.467C222.731 573.302 222.89 574.31 222.89 575.493C222.89 576.682 222.732 577.698 222.416 578.54C222.1 579.378 221.644 580.019 221.047 580.463C220.451 580.903 219.734 581.123 218.895 581.123ZM218.895 579.701C219.634 579.701 220.211 579.34 220.627 578.62C221.046 577.899 221.255 576.856 221.255 575.493C221.255 574.587 221.159 573.822 220.968 573.197C220.779 572.568 220.508 572.093 220.153 571.769C219.801 571.443 219.382 571.279 218.895 571.279C218.16 571.279 217.583 571.642 217.164 572.366C216.745 573.09 216.534 574.133 216.53 575.493C216.53 576.402 216.625 577.171 216.813 577.799C217.004 578.424 217.276 578.898 217.628 579.221C217.979 579.541 218.402 579.701 218.895 579.701ZM231.562 584.181C230.912 584.181 230.352 584.095 229.884 583.925C229.418 583.755 229.038 583.529 228.744 583.248C228.449 582.968 228.229 582.661 228.083 582.327L229.452 581.762C229.548 581.919 229.676 582.084 229.836 582.258C229.999 582.435 230.219 582.586 230.496 582.71C230.777 582.835 231.137 582.897 231.578 582.897C232.181 582.897 232.68 582.75 233.074 582.455C233.469 582.164 233.666 581.698 233.666 581.059V579.451H233.564C233.469 579.625 233.33 579.818 233.149 580.031C232.971 580.244 232.726 580.429 232.414 580.585C232.101 580.741 231.695 580.82 231.194 580.82C230.548 580.82 229.965 580.669 229.447 580.367C228.932 580.061 228.524 579.612 228.222 579.019C227.923 578.422 227.774 577.689 227.774 576.819C227.774 575.949 227.922 575.203 228.216 574.582C228.515 573.96 228.923 573.485 229.442 573.154C229.96 572.821 230.548 572.654 231.205 572.654C231.712 572.654 232.123 572.739 232.435 572.909C232.748 573.076 232.991 573.272 233.165 573.495C233.342 573.719 233.479 573.916 233.575 574.087H233.692V572.76H235.253V581.123C235.253 581.826 235.09 582.403 234.763 582.854C234.436 583.305 233.994 583.639 233.437 583.856C232.883 584.072 232.258 584.181 231.562 584.181ZM231.546 579.498C232.004 579.498 232.391 579.392 232.707 579.179C233.026 578.962 233.268 578.653 233.431 578.252C233.598 577.847 233.682 577.362 233.682 576.798C233.682 576.247 233.6 575.763 233.437 575.344C233.273 574.925 233.034 574.598 232.717 574.364C232.401 574.126 232.011 574.007 231.546 574.007C231.066 574.007 230.667 574.131 230.347 574.38C230.027 574.625 229.786 574.958 229.623 575.381C229.463 575.804 229.383 576.276 229.383 576.798C229.383 577.334 229.465 577.805 229.628 578.209C229.791 578.614 230.033 578.93 230.352 579.158C230.676 579.385 231.073 579.498 231.546 579.498Z" fill="white"/>
<path d="M211.929 607.228C211.261 607.228 210.661 607.1 210.128 606.844C209.599 606.585 209.176 606.23 208.86 605.779C208.544 605.328 208.376 604.813 208.354 604.234H209.952C209.991 604.703 210.199 605.088 210.576 605.39C210.952 605.692 211.403 605.843 211.929 605.843C212.348 605.843 212.719 605.747 213.042 605.555C213.369 605.36 213.624 605.092 213.809 604.751C213.997 604.41 214.091 604.021 214.091 603.584C214.091 603.141 213.995 602.745 213.804 602.397C213.612 602.049 213.347 601.775 213.01 601.576C212.676 601.377 212.293 601.276 211.859 601.273C211.529 601.273 211.197 601.329 210.863 601.443C210.529 601.557 210.259 601.706 210.054 601.891L208.546 601.667L209.159 596.17H215.157V597.581H210.528L210.181 600.633H210.245C210.458 600.427 210.741 600.255 211.092 600.117C211.447 599.978 211.827 599.909 212.232 599.909C212.896 599.909 213.487 600.067 214.006 600.383C214.528 600.699 214.938 601.131 215.236 601.677C215.538 602.221 215.687 602.846 215.684 603.552C215.687 604.259 215.528 604.889 215.204 605.443C214.885 605.997 214.441 606.434 213.873 606.754C213.308 607.07 212.66 607.228 211.929 607.228ZM221.107 607.26C220.266 607.256 219.547 607.034 218.95 606.594C218.353 606.154 217.897 605.513 217.581 604.671C217.265 603.829 217.107 602.816 217.107 601.63C217.107 600.447 217.265 599.437 217.581 598.599C217.901 597.761 218.359 597.121 218.955 596.681C219.556 596.241 220.273 596.02 221.107 596.02C221.942 596.02 222.657 596.242 223.254 596.686C223.851 597.127 224.307 597.766 224.623 598.604C224.943 599.438 225.102 600.447 225.102 601.63C225.102 602.819 224.944 603.835 224.628 604.676C224.312 605.514 223.856 606.155 223.259 606.599C222.663 607.04 221.945 607.26 221.107 607.26ZM221.107 605.838C221.846 605.838 222.423 605.477 222.839 604.756C223.258 604.035 223.467 602.993 223.467 601.63C223.467 600.724 223.371 599.959 223.179 599.334C222.991 598.705 222.72 598.229 222.364 597.906C222.013 597.579 221.594 597.416 221.107 597.416C220.372 597.416 219.795 597.778 219.376 598.503C218.957 599.227 218.746 600.269 218.742 601.63C218.742 602.539 218.836 603.307 219.025 603.936C219.216 604.561 219.488 605.035 219.84 605.358C220.191 605.678 220.614 605.838 221.107 605.838ZM233.773 610.317C233.124 610.317 232.564 610.232 232.096 610.062C231.63 609.891 231.25 609.666 230.956 609.385C230.661 609.105 230.441 608.797 230.295 608.464L231.664 607.899C231.76 608.055 231.888 608.22 232.048 608.394C232.211 608.572 232.431 608.723 232.708 608.847C232.989 608.971 233.349 609.034 233.789 609.034C234.393 609.034 234.892 608.886 235.286 608.592C235.68 608.3 235.878 607.835 235.878 607.196V605.587H235.776C235.68 605.761 235.542 605.955 235.361 606.168C235.183 606.381 234.938 606.566 234.626 606.722C234.313 606.878 233.907 606.956 233.406 606.956C232.76 606.956 232.177 606.805 231.659 606.503C231.144 606.198 230.735 605.749 230.434 605.156C230.135 604.559 229.986 603.826 229.986 602.956C229.986 602.086 230.134 601.34 230.428 600.719C230.727 600.097 231.135 599.621 231.653 599.291C232.172 598.957 232.76 598.79 233.417 598.79C233.924 598.79 234.335 598.876 234.647 599.046C234.96 599.213 235.203 599.408 235.377 599.632C235.554 599.856 235.691 600.053 235.787 600.223H235.904V598.897H237.465V607.26C237.465 607.963 237.302 608.54 236.975 608.991C236.648 609.442 236.206 609.776 235.648 609.992C235.095 610.209 234.47 610.317 233.773 610.317ZM233.758 605.635C234.216 605.635 234.603 605.529 234.919 605.316C235.238 605.099 235.48 604.79 235.643 604.389C235.81 603.984 235.894 603.499 235.894 602.935C235.894 602.384 235.812 601.899 235.648 601.48C235.485 601.061 235.245 600.735 234.929 600.5C234.613 600.262 234.223 600.143 233.758 600.143C233.278 600.143 232.879 600.268 232.559 600.516C232.239 600.761 231.998 601.095 231.835 601.518C231.675 601.94 231.595 602.413 231.595 602.935C231.595 603.471 231.677 603.941 231.84 604.346C232.003 604.751 232.245 605.067 232.564 605.294C232.887 605.522 233.285 605.635 233.758 605.635Z" fill="white"/>
<path d="M211.094 633.215L215.856 623.798V623.718H210.348V622.306H217.56V623.766L212.814 633.215H211.094ZM226.194 636.454C225.544 636.454 224.985 636.369 224.516 636.198C224.051 636.028 223.671 635.802 223.376 635.522C223.082 635.241 222.861 634.934 222.716 634.6L224.085 634.036C224.181 634.192 224.308 634.357 224.468 634.531C224.632 634.709 224.852 634.86 225.129 634.984C225.409 635.108 225.77 635.17 226.21 635.17C226.814 635.17 227.313 635.023 227.707 634.728C228.101 634.437 228.298 633.972 228.298 633.333V631.724H228.197C228.101 631.898 227.963 632.092 227.781 632.305C227.604 632.518 227.359 632.702 227.046 632.859C226.734 633.015 226.327 633.093 225.827 633.093C225.18 633.093 224.598 632.942 224.079 632.64C223.564 632.335 223.156 631.886 222.854 631.293C222.556 630.696 222.407 629.963 222.407 629.093C222.407 628.223 222.554 627.477 222.849 626.855C223.147 626.234 223.556 625.758 224.074 625.428C224.593 625.094 225.18 624.927 225.837 624.927C226.345 624.927 226.755 625.012 227.068 625.183C227.38 625.35 227.623 625.545 227.797 625.769C227.975 625.992 228.112 626.19 228.208 626.36H228.325V625.034H229.885V633.397C229.885 634.1 229.722 634.677 229.395 635.128C229.069 635.579 228.627 635.913 228.069 636.129C227.515 636.346 226.89 636.454 226.194 636.454ZM226.178 631.772C226.636 631.772 227.023 631.665 227.339 631.452C227.659 631.236 227.9 630.927 228.064 630.525C228.231 630.121 228.314 629.636 228.314 629.071C228.314 628.521 228.232 628.036 228.069 627.617C227.906 627.198 227.666 626.871 227.35 626.637C227.034 626.399 226.643 626.28 226.178 626.28C225.699 626.28 225.299 626.404 224.98 626.653C224.66 626.898 224.419 627.232 224.255 627.654C224.095 628.077 224.015 628.549 224.015 629.071C224.015 629.607 224.097 630.078 224.26 630.483C224.424 630.888 224.665 631.204 224.985 631.431C225.308 631.658 225.706 631.772 226.178 631.772Z" fill="white"/>
<path d="M208.328 659.352V658.159L212.019 654.334C212.413 653.919 212.738 653.555 212.994 653.242C213.253 652.926 213.447 652.626 213.574 652.342C213.702 652.058 213.766 651.756 213.766 651.437C213.766 651.074 213.681 650.762 213.511 650.499C213.34 650.233 213.108 650.029 212.813 649.887C212.518 649.741 212.186 649.668 211.817 649.668C211.426 649.668 211.085 649.748 210.794 649.908C210.503 650.068 210.279 650.293 210.123 650.584C209.967 650.876 209.888 651.217 209.888 651.607H208.317C208.317 650.943 208.47 650.362 208.775 649.865C209.081 649.368 209.5 648.983 210.032 648.709C210.565 648.432 211.17 648.294 211.849 648.294C212.534 648.294 213.138 648.431 213.66 648.704C214.185 648.974 214.595 649.343 214.89 649.812C215.185 650.277 215.332 650.803 215.332 651.389C215.332 651.794 215.256 652.19 215.103 652.577C214.954 652.964 214.693 653.395 214.32 653.871C213.947 654.343 213.429 654.917 212.765 655.592L210.597 657.861V657.941H215.508V659.352H208.328ZM220.808 659.501C220.14 659.501 219.54 659.373 219.007 659.118C218.478 658.859 218.056 658.503 217.74 658.052C217.424 657.601 217.255 657.087 217.234 656.508H218.832C218.871 656.976 219.078 657.362 219.455 657.664C219.831 657.965 220.282 658.116 220.808 658.116C221.227 658.116 221.598 658.02 221.921 657.829C222.248 657.633 222.503 657.365 222.688 657.024C222.876 656.683 222.97 656.295 222.97 655.858C222.97 655.414 222.875 655.018 222.683 654.67C222.491 654.322 222.226 654.049 221.889 653.85C221.555 653.651 221.172 653.55 220.739 653.546C220.408 653.546 220.076 653.603 219.742 653.717C219.409 653.83 219.139 653.979 218.933 654.164L217.425 653.94L218.038 648.443H224.036V649.855H219.407L219.061 652.907H219.125C219.338 652.701 219.62 652.529 219.971 652.39C220.327 652.252 220.707 652.182 221.111 652.182C221.775 652.182 222.367 652.34 222.885 652.657C223.407 652.973 223.817 653.404 224.116 653.951C224.417 654.494 224.567 655.119 224.563 655.826C224.567 656.533 224.407 657.163 224.084 657.717C223.764 658.271 223.32 658.708 222.752 659.027C222.187 659.343 221.539 659.501 220.808 659.501ZM233.29 662.591C232.64 662.591 232.081 662.506 231.612 662.335C231.147 662.165 230.767 661.939 230.472 661.659C230.178 661.378 229.957 661.071 229.812 660.737L231.181 660.172C231.277 660.329 231.404 660.494 231.564 660.668C231.728 660.845 231.948 660.996 232.225 661.121C232.505 661.245 232.866 661.307 233.306 661.307C233.91 661.307 234.409 661.16 234.803 660.865C235.197 660.574 235.394 660.109 235.394 659.469V657.861H235.293C235.197 658.035 235.059 658.228 234.877 658.441C234.7 658.654 234.455 658.839 234.142 658.995C233.83 659.152 233.423 659.23 232.923 659.23C232.276 659.23 231.694 659.079 231.175 658.777C230.66 658.471 230.252 658.022 229.95 657.429C229.652 656.833 229.503 656.099 229.503 655.229C229.503 654.359 229.65 653.614 229.945 652.992C230.243 652.371 230.652 651.895 231.17 651.565C231.689 651.231 232.276 651.064 232.933 651.064C233.441 651.064 233.851 651.149 234.164 651.32C234.476 651.486 234.719 651.682 234.893 651.905C235.071 652.129 235.208 652.326 235.304 652.497H235.421V651.17H236.981V659.533C236.981 660.236 236.818 660.813 236.491 661.264C236.165 661.715 235.723 662.049 235.165 662.266C234.611 662.482 233.986 662.591 233.29 662.591ZM233.274 657.909C233.732 657.909 234.119 657.802 234.435 657.589C234.755 657.372 234.996 657.063 235.16 656.662C235.327 656.257 235.41 655.773 235.41 655.208C235.41 654.658 235.328 654.173 235.165 653.754C235.002 653.335 234.762 653.008 234.446 652.774C234.13 652.536 233.739 652.417 233.274 652.417C232.795 652.417 232.395 652.541 232.076 652.79C231.756 653.035 231.515 653.369 231.351 653.791C231.191 654.214 231.111 654.686 231.111 655.208C231.111 655.744 231.193 656.215 231.356 656.62C231.52 657.024 231.761 657.34 232.081 657.568C232.404 657.795 232.802 657.909 233.274 657.909Z" fill="white"/>
<path d="M212.126 685.67C211.284 685.667 210.565 685.445 209.968 685.004C209.372 684.564 208.915 683.923 208.599 683.081C208.283 682.24 208.125 681.226 208.125 680.04C208.125 678.857 208.283 677.847 208.599 677.009C208.919 676.171 209.377 675.532 209.974 675.091C210.574 674.651 211.291 674.431 212.126 674.431C212.96 674.431 213.676 674.653 214.272 675.097C214.869 675.537 215.325 676.176 215.641 677.014C215.961 677.849 216.121 678.857 216.121 680.04C216.121 681.23 215.963 682.245 215.647 683.087C215.331 683.925 214.874 684.566 214.278 685.01C213.681 685.45 212.964 685.67 212.126 685.67ZM212.126 684.248C212.864 684.248 213.441 683.888 213.857 683.167C214.276 682.446 214.485 681.404 214.485 680.04C214.485 679.134 214.389 678.369 214.198 677.744C214.009 677.116 213.738 676.64 213.383 676.317C213.031 675.99 212.612 675.826 212.126 675.826C211.391 675.826 210.813 676.189 210.394 676.913C209.975 677.638 209.764 678.68 209.761 680.04C209.761 680.949 209.855 681.718 210.043 682.346C210.235 682.971 210.506 683.445 210.858 683.769C211.209 684.088 211.632 684.248 212.126 684.248ZM218.365 685.59C218.074 685.59 217.824 685.487 217.614 685.281C217.405 685.072 217.3 684.82 217.3 684.525C217.3 684.234 217.405 683.985 217.614 683.779C217.824 683.57 218.074 683.465 218.365 683.465C218.657 683.465 218.907 683.57 219.117 683.779C219.326 683.985 219.431 684.234 219.431 684.525C219.431 684.72 219.381 684.9 219.282 685.063C219.186 685.223 219.058 685.351 218.898 685.447C218.738 685.542 218.561 685.59 218.365 685.59ZM220.994 683.358V682.027L225.708 674.58H226.757V676.54H226.091L222.72 681.878V681.963H229.181V683.358H220.994ZM226.166 685.489V682.954L226.177 682.346V674.58H227.737V685.489H226.166ZM234.388 685.489V677.307H235.917V678.639H236.018C236.189 678.188 236.468 677.836 236.855 677.584C237.242 677.329 237.705 677.201 238.245 677.201C238.792 677.201 239.25 677.329 239.619 677.584C239.992 677.84 240.267 678.192 240.445 678.639H240.53C240.725 678.202 241.036 677.854 241.462 677.595C241.888 677.332 242.396 677.201 242.986 677.201C243.728 677.201 244.333 677.433 244.802 677.899C245.274 678.364 245.51 679.065 245.51 680.003V685.489H243.918V680.152C243.918 679.598 243.767 679.197 243.465 678.948C243.163 678.699 242.803 678.575 242.384 678.575C241.865 678.575 241.462 678.735 241.175 679.054C240.887 679.371 240.743 679.777 240.743 680.274V685.489H239.156V680.051C239.156 679.607 239.017 679.25 238.74 678.98C238.463 678.71 238.103 678.575 237.659 678.575C237.357 678.575 237.078 678.655 236.823 678.815C236.57 678.971 236.366 679.189 236.21 679.47C236.057 679.75 235.981 680.075 235.981 680.445V685.489H234.388ZM250.756 688.728C250.106 688.728 249.546 688.643 249.078 688.472C248.612 688.302 248.232 688.076 247.938 687.796C247.643 687.515 247.423 687.208 247.277 686.874L248.646 686.309C248.742 686.466 248.87 686.631 249.03 686.805C249.193 686.982 249.413 687.133 249.69 687.258C249.971 687.382 250.331 687.444 250.772 687.444C251.375 687.444 251.874 687.297 252.268 687.002C252.663 686.711 252.86 686.246 252.86 685.606V683.998H252.758C252.663 684.172 252.524 684.365 252.343 684.578C252.165 684.791 251.92 684.976 251.608 685.132C251.295 685.288 250.889 685.367 250.388 685.367C249.742 685.367 249.159 685.216 248.641 684.914C248.126 684.608 247.718 684.159 247.416 683.566C247.117 682.97 246.968 682.236 246.968 681.366C246.968 680.496 247.116 679.75 247.41 679.129C247.709 678.508 248.117 678.032 248.636 677.701C249.154 677.368 249.742 677.201 250.399 677.201C250.906 677.201 251.317 677.286 251.629 677.456C251.942 677.623 252.185 677.819 252.359 678.042C252.536 678.266 252.673 678.463 252.769 678.634H252.886V677.307H254.447V685.67C254.447 686.373 254.284 686.95 253.957 687.401C253.63 687.852 253.188 688.186 252.631 688.403C252.077 688.619 251.452 688.728 250.756 688.728ZM250.74 684.046C251.198 684.046 251.585 683.939 251.901 683.726C252.22 683.509 252.462 683.2 252.625 682.799C252.792 682.394 252.876 681.91 252.876 681.345C252.876 680.795 252.794 680.31 252.631 679.891C252.467 679.472 252.228 679.145 251.911 678.911C251.595 678.673 251.205 678.554 250.74 678.554C250.26 678.554 249.861 678.678 249.541 678.927C249.221 679.172 248.98 679.505 248.817 679.928C248.657 680.351 248.577 680.823 248.577 681.345C248.577 681.881 248.659 682.352 248.822 682.757C248.985 683.161 249.227 683.477 249.546 683.705C249.87 683.932 250.267 684.046 250.74 684.046Z" fill="white"/>
<path d="M212.136 711.775C211.65 711.768 211.17 711.679 210.698 711.509C210.229 711.338 209.803 711.054 209.42 710.656C209.036 710.259 208.729 709.724 208.498 709.053C208.271 708.382 208.157 707.544 208.157 706.539C208.157 705.587 208.251 704.742 208.44 704.003C208.631 703.265 208.907 702.641 209.265 702.134C209.624 701.622 210.057 701.233 210.565 700.967C211.073 700.701 211.643 700.568 212.275 700.568C212.925 700.568 213.502 700.695 214.006 700.951C214.51 701.207 214.919 701.56 215.231 702.011C215.547 702.462 215.748 702.975 215.833 703.551H214.208C214.098 703.096 213.88 702.725 213.553 702.437C213.226 702.15 212.8 702.006 212.275 702.006C211.476 702.006 210.853 702.354 210.405 703.05C209.961 703.746 209.737 704.714 209.734 705.953H209.814C210.002 705.644 210.233 705.381 210.506 705.165C210.783 704.944 211.092 704.776 211.433 704.659C211.778 704.538 212.14 704.477 212.52 704.477C213.152 704.477 213.724 704.632 214.235 704.941C214.75 705.246 215.16 705.669 215.465 706.209C215.771 706.748 215.924 707.366 215.924 708.062C215.924 708.758 215.766 709.389 215.449 709.953C215.137 710.518 214.697 710.965 214.128 711.296C213.56 711.622 212.896 711.782 212.136 711.775ZM212.131 710.39C212.55 710.39 212.925 710.287 213.255 710.081C213.585 709.875 213.846 709.598 214.038 709.25C214.23 708.902 214.326 708.513 214.326 708.084C214.326 707.665 214.231 707.283 214.043 706.938C213.859 706.594 213.603 706.32 213.276 706.118C212.953 705.916 212.584 705.814 212.168 705.814C211.852 705.814 211.559 705.875 211.289 705.996C211.023 706.116 210.789 706.283 210.586 706.496C210.384 706.709 210.224 706.954 210.107 707.231C209.993 707.505 209.936 707.794 209.936 708.1C209.936 708.508 210.03 708.886 210.219 709.234C210.41 709.582 210.671 709.863 211.002 710.076C211.335 710.285 211.712 710.39 212.131 710.39ZM221.215 711.626V703.444H222.744V704.776H222.845C223.015 704.325 223.294 703.973 223.681 703.721C224.068 703.465 224.532 703.338 225.071 703.338C225.618 703.338 226.076 703.465 226.446 703.721C226.819 703.977 227.094 704.328 227.271 704.776H227.357C227.552 704.339 227.863 703.991 228.289 703.732C228.715 703.469 229.223 703.338 229.812 703.338C230.554 703.338 231.16 703.57 231.629 704.035C232.101 704.5 232.337 705.202 232.337 706.139V711.626H230.744V706.288C230.744 705.735 230.593 705.333 230.292 705.085C229.99 704.836 229.629 704.712 229.21 704.712C228.692 704.712 228.289 704.872 228.001 705.191C227.713 705.507 227.57 705.914 227.57 706.411V711.626H225.982V706.187C225.982 705.743 225.844 705.387 225.567 705.117C225.29 704.847 224.929 704.712 224.485 704.712C224.184 704.712 223.905 704.792 223.649 704.951C223.397 705.108 223.193 705.326 223.037 705.607C222.884 705.887 222.808 706.212 222.808 706.581V711.626H221.215ZM237.582 714.864C236.932 714.864 236.373 714.779 235.904 714.609C235.439 714.438 235.059 714.213 234.764 713.932C234.47 713.652 234.249 713.345 234.104 713.011L235.473 712.446C235.569 712.602 235.696 712.768 235.856 712.942C236.02 713.119 236.24 713.27 236.517 713.394C236.797 713.519 237.158 713.581 237.598 713.581C238.202 713.581 238.701 713.433 239.095 713.139C239.489 712.847 239.686 712.382 239.686 711.743V710.134H239.585C239.489 710.308 239.351 710.502 239.169 710.715C238.992 710.928 238.747 711.113 238.434 711.269C238.122 711.425 237.715 711.503 237.215 711.503C236.568 711.503 235.986 711.352 235.467 711.051C234.952 710.745 234.544 710.296 234.242 709.703C233.944 709.106 233.795 708.373 233.795 707.503C233.795 706.633 233.942 705.887 234.237 705.266C234.535 704.644 234.944 704.168 235.462 703.838C235.981 703.504 236.568 703.338 237.225 703.338C237.733 703.338 238.143 703.423 238.456 703.593C238.768 703.76 239.011 703.955 239.185 704.179C239.363 704.403 239.5 704.6 239.596 704.77H239.713V703.444H241.273V711.807C241.273 712.51 241.11 713.087 240.783 713.538C240.457 713.989 240.015 714.323 239.457 714.54C238.903 714.756 238.278 714.864 237.582 714.864ZM237.566 710.182C238.024 710.182 238.411 710.076 238.727 709.863C239.047 709.646 239.288 709.337 239.452 708.936C239.619 708.531 239.702 708.046 239.702 707.482C239.702 706.931 239.62 706.447 239.457 706.027C239.294 705.608 239.054 705.282 238.738 705.047C238.422 704.809 238.031 704.69 237.566 704.69C237.087 704.69 236.687 704.815 236.368 705.063C236.048 705.308 235.807 705.642 235.643 706.065C235.483 706.487 235.403 706.96 235.403 707.482C235.403 708.018 235.485 708.488 235.648 708.893C235.812 709.298 236.053 709.614 236.373 709.841C236.696 710.069 237.094 710.182 237.566 710.182Z" fill="white"/>
<path d="M326.538 580.942V579.749L330.229 575.924C330.623 575.509 330.948 575.145 331.204 574.832C331.463 574.516 331.657 574.216 331.784 573.932C331.912 573.648 331.976 573.346 331.976 573.027C331.976 572.664 331.891 572.352 331.721 572.089C331.55 571.823 331.317 571.619 331.023 571.476C330.728 571.331 330.396 571.258 330.027 571.258C329.636 571.258 329.295 571.338 329.004 571.498C328.713 571.658 328.489 571.883 328.333 572.174C328.176 572.465 328.098 572.806 328.098 573.197H326.527C326.527 572.533 326.68 571.952 326.985 571.455C327.29 570.958 327.71 570.573 328.242 570.299C328.775 570.022 329.38 569.884 330.059 569.884C330.744 569.884 331.348 570.02 331.87 570.294C332.395 570.564 332.805 570.933 333.1 571.402C333.395 571.867 333.542 572.393 333.542 572.979C333.542 573.383 333.466 573.779 333.313 574.166C333.164 574.554 332.903 574.985 332.53 575.461C332.157 575.933 331.639 576.507 330.975 577.181L328.807 579.451V579.53H333.718V580.942H326.538ZM335.417 580.942V579.749L339.108 575.924C339.502 575.509 339.827 575.145 340.083 574.832C340.342 574.516 340.536 574.216 340.664 573.932C340.792 573.648 340.855 573.346 340.855 573.027C340.855 572.664 340.77 572.352 340.6 572.089C340.429 571.823 340.197 571.619 339.902 571.476C339.607 571.331 339.275 571.258 338.906 571.258C338.515 571.258 338.174 571.338 337.883 571.498C337.592 571.658 337.368 571.883 337.212 572.174C337.056 572.465 336.978 572.806 336.978 573.197H335.406C335.406 572.533 335.559 571.952 335.864 571.455C336.17 570.958 336.589 570.573 337.121 570.299C337.654 570.022 338.26 569.884 338.938 569.884C339.623 569.884 340.227 570.02 340.749 570.294C341.274 570.564 341.685 570.933 341.979 571.402C342.274 571.867 342.421 572.393 342.421 572.979C342.421 573.383 342.345 573.779 342.192 574.166C342.043 574.554 341.782 574.985 341.409 575.461C341.037 575.933 340.518 576.507 339.854 577.181L337.686 579.451V579.53H342.597V580.942H335.417ZM349.99 578.897V578.321C349.99 577.909 350.076 577.533 350.246 577.192C350.42 576.848 350.672 576.572 351.002 576.366C351.336 576.157 351.739 576.052 352.212 576.052C352.695 576.052 353.099 576.155 353.426 576.361C353.753 576.567 354 576.842 354.166 577.187C354.337 577.531 354.422 577.909 354.422 578.321V578.897C354.422 579.308 354.337 579.687 354.166 580.031C353.996 580.372 353.746 580.647 353.415 580.857C353.089 581.063 352.687 581.166 352.212 581.166C351.732 581.166 351.327 581.063 350.997 580.857C350.667 580.647 350.416 580.372 350.246 580.031C350.076 579.687 349.99 579.308 349.99 578.897ZM351.231 578.321V578.897C351.231 579.202 351.304 579.479 351.45 579.728C351.595 579.976 351.849 580.1 352.212 580.1C352.57 580.1 352.821 579.976 352.963 579.728C353.105 579.479 353.176 579.202 353.176 578.897V578.321C353.176 578.016 353.106 577.739 352.968 577.49C352.833 577.242 352.581 577.117 352.212 577.117C351.856 577.117 351.604 577.242 351.455 577.49C351.306 577.739 351.231 578.016 351.231 578.321ZM344.504 572.654V572.078C344.504 571.666 344.589 571.288 344.76 570.944C344.934 570.599 345.186 570.324 345.516 570.118C345.85 569.912 346.253 569.809 346.725 569.809C347.208 569.809 347.613 569.912 347.94 570.118C348.266 570.324 348.513 570.599 348.68 570.944C348.847 571.288 348.93 571.666 348.93 572.078V572.654C348.93 573.066 348.845 573.444 348.675 573.788C348.508 574.129 348.259 574.404 347.929 574.614C347.602 574.82 347.201 574.923 346.725 574.923C346.242 574.923 345.835 574.82 345.505 574.614C345.179 574.404 344.93 574.129 344.76 573.788C344.589 573.444 344.504 573.066 344.504 572.654ZM345.75 572.078V572.654C345.75 572.959 345.821 573.236 345.963 573.485C346.109 573.733 346.363 573.857 346.725 573.857C347.08 573.857 347.329 573.733 347.471 573.485C347.616 573.236 347.689 572.959 347.689 572.654V572.078C347.689 571.773 347.62 571.496 347.481 571.247C347.343 570.999 347.091 570.875 346.725 570.875C346.37 570.875 346.118 570.999 345.969 571.247C345.823 571.496 345.75 571.773 345.75 572.078ZM345.01 580.942L352.51 570.033H353.783L346.283 580.942H345.01Z" fill="white"/>
<path d="M331.172 552.76V552.185C331.172 551.748 331.264 551.346 331.449 550.981C331.637 550.611 331.909 550.317 332.264 550.096C332.623 549.873 333.06 549.761 333.574 549.761C334.096 549.761 334.535 549.871 334.89 550.091C335.249 550.311 335.519 550.606 335.7 550.975C335.884 551.341 335.977 551.744 335.977 552.185V552.76C335.977 553.197 335.884 553.6 335.7 553.969C335.515 554.335 335.243 554.628 334.885 554.848C334.526 555.072 334.089 555.183 333.574 555.183C333.052 555.183 332.614 555.072 332.259 554.848C331.904 554.628 331.634 554.335 331.449 553.969C331.264 553.6 331.172 553.197 331.172 552.76ZM332.722 552.185V552.76C332.722 553.012 332.783 553.25 332.903 553.474C333.028 553.697 333.251 553.809 333.574 553.809C333.898 553.809 334.118 553.699 334.235 553.479C334.356 553.259 334.416 553.019 334.416 552.76V552.185C334.416 551.925 334.359 551.684 334.246 551.46C334.132 551.236 333.908 551.125 333.574 551.125C333.255 551.125 333.033 551.236 332.909 551.46C332.784 551.684 332.722 551.925 332.722 552.185ZM325.574 546.517V545.942C325.574 545.501 325.668 545.098 325.856 544.732C326.044 544.363 326.316 544.068 326.671 543.848C327.03 543.628 327.463 543.518 327.971 543.518C328.496 543.518 328.937 543.628 329.292 543.848C329.647 544.068 329.917 544.363 330.101 544.732C330.286 545.098 330.378 545.501 330.378 545.942V546.517C330.378 546.957 330.284 547.36 330.096 547.726C329.911 548.092 329.64 548.385 329.281 548.605C328.926 548.822 328.489 548.93 327.971 548.93C327.452 548.93 327.014 548.82 326.655 548.6C326.3 548.376 326.03 548.083 325.845 547.721C325.664 547.355 325.574 546.954 325.574 546.517ZM327.134 545.942V546.517C327.134 546.776 327.195 547.016 327.316 547.236C327.44 547.456 327.658 547.566 327.971 547.566C328.297 547.566 328.519 547.456 328.637 547.236C328.757 547.016 328.818 546.776 328.818 546.517V545.942C328.818 545.682 328.761 545.441 328.647 545.217C328.534 544.994 328.308 544.882 327.971 544.882C327.655 544.882 327.436 544.995 327.316 545.223C327.195 545.45 327.134 545.69 327.134 545.942ZM326.277 554.805L333.777 543.896H335.172L327.672 554.805H326.277ZM342.867 554.805H340.396L344.162 543.896H347.134L350.895 554.805H348.423L345.691 546.389H345.605L342.867 554.805ZM342.713 550.517H348.551V552.318H342.713V550.517ZM351.888 554.805V543.896H354.194V548.706H354.338L358.264 543.896H361.028L356.98 548.781L361.076 554.805H358.317L355.329 550.32L354.194 551.705V554.805H351.888ZM368.528 547.422C368.453 547.163 368.349 546.934 368.214 546.735C368.079 546.533 367.914 546.362 367.718 546.224C367.527 546.082 367.306 545.974 367.058 545.899C366.813 545.824 366.541 545.787 366.243 545.787C365.685 545.787 365.195 545.926 364.773 546.203C364.354 546.48 364.027 546.883 363.793 547.412C363.558 547.937 363.441 548.58 363.441 549.34C363.441 550.1 363.556 550.746 363.787 551.279C364.018 551.812 364.345 552.218 364.767 552.499C365.19 552.776 365.689 552.914 366.264 552.914C366.786 552.914 367.232 552.822 367.601 552.637C367.974 552.449 368.258 552.185 368.453 551.844C368.652 551.503 368.752 551.1 368.752 550.634L369.22 550.704H366.408V548.967H370.973V550.342C370.973 551.3 370.771 552.124 370.366 552.813C369.961 553.498 369.403 554.028 368.693 554.4C367.983 554.77 367.17 554.954 366.254 554.954C365.231 554.954 364.332 554.729 363.558 554.278C362.784 553.823 362.18 553.179 361.747 552.344C361.317 551.506 361.103 550.512 361.103 549.361C361.103 548.477 361.23 547.689 361.486 546.996C361.745 546.3 362.108 545.711 362.573 545.228C363.038 544.745 363.58 544.377 364.197 544.125C364.815 543.873 365.485 543.747 366.206 543.747C366.823 543.747 367.399 543.838 367.931 544.019C368.464 544.196 368.936 544.448 369.348 544.775C369.764 545.102 370.103 545.491 370.366 545.942C370.629 546.389 370.797 546.883 370.872 547.422H368.528Z" fill="white"/>
<path d="M330.676 596.17V607.079H329.025V597.821H328.961L326.351 599.525V597.949L329.073 596.17H330.676ZM333.675 607.079L338.437 597.661V597.581H332.929V596.17H340.142V597.629L335.396 607.079H333.675ZM347.368 605.033V604.458C347.368 604.046 347.453 603.67 347.624 603.329C347.798 602.984 348.05 602.709 348.38 602.503C348.714 602.294 349.117 602.189 349.589 602.189C350.072 602.189 350.477 602.292 350.804 602.498C351.131 602.704 351.377 602.979 351.544 603.323C351.715 603.668 351.8 604.046 351.8 604.458V605.033C351.8 605.445 351.715 605.823 351.544 606.168C351.374 606.509 351.124 606.784 350.793 606.994C350.467 607.199 350.065 607.302 349.589 607.302C349.11 607.302 348.705 607.199 348.375 606.994C348.045 606.784 347.794 606.509 347.624 606.168C347.453 605.823 347.368 605.445 347.368 605.033ZM348.609 604.458V605.033C348.609 605.339 348.682 605.616 348.828 605.864C348.973 606.113 349.227 606.237 349.589 606.237C349.948 606.237 350.199 606.113 350.341 605.864C350.483 605.616 350.554 605.339 350.554 605.033V604.458C350.554 604.153 350.484 603.876 350.346 603.627C350.211 603.378 349.959 603.254 349.589 603.254C349.234 603.254 348.982 603.378 348.833 603.627C348.684 603.876 348.609 604.153 348.609 604.458ZM341.882 598.79V598.215C341.882 597.803 341.967 597.425 342.137 597.081C342.311 596.736 342.564 596.461 342.894 596.255C343.228 596.049 343.631 595.946 344.103 595.946C344.586 595.946 344.991 596.049 345.317 596.255C345.644 596.461 345.891 596.736 346.058 597.081C346.225 597.425 346.308 597.803 346.308 598.215V598.79C346.308 599.202 346.223 599.581 346.053 599.925C345.886 600.266 345.637 600.541 345.307 600.751C344.98 600.957 344.579 601.06 344.103 601.06C343.62 601.06 343.213 600.957 342.883 600.751C342.556 600.541 342.308 600.266 342.137 599.925C341.967 599.581 341.882 599.202 341.882 598.79ZM343.128 598.215V598.79C343.128 599.096 343.199 599.373 343.341 599.621C343.487 599.87 343.741 599.994 344.103 599.994C344.458 599.994 344.707 599.87 344.849 599.621C344.994 599.373 345.067 599.096 345.067 598.79V598.215C345.067 597.91 344.998 597.633 344.859 597.384C344.721 597.136 344.469 597.011 344.103 597.011C343.748 597.011 343.496 597.136 343.347 597.384C343.201 597.633 343.128 597.91 343.128 598.215ZM342.388 607.079L349.888 596.17H351.161L343.661 607.079H342.388Z" fill="white"/>
<path d="M330.138 659.501C329.471 659.501 328.871 659.373 328.338 659.118C327.809 658.859 327.386 658.503 327.07 658.052C326.754 657.601 326.586 657.087 326.564 656.508H328.162C328.201 656.976 328.409 657.362 328.786 657.664C329.162 657.965 329.613 658.116 330.138 658.116C330.558 658.116 330.929 658.02 331.252 657.829C331.578 657.633 331.834 657.365 332.019 657.024C332.207 656.683 332.301 656.295 332.301 655.858C332.301 655.414 332.205 655.018 332.013 654.67C331.822 654.322 331.557 654.049 331.22 653.85C330.886 653.651 330.502 653.55 330.069 653.546C329.739 653.546 329.407 653.603 329.073 653.717C328.739 653.83 328.469 653.979 328.263 654.164L326.756 653.94L327.369 648.443H333.366V649.855H328.738L328.391 652.907H328.455C328.668 652.701 328.951 652.529 329.302 652.39C329.657 652.252 330.037 652.182 330.442 652.182C331.106 652.182 331.697 652.34 332.216 652.657C332.738 652.973 333.148 653.404 333.446 653.951C333.748 654.494 333.897 655.119 333.894 655.826C333.897 656.533 333.738 657.163 333.414 657.717C333.095 658.271 332.651 658.708 332.083 659.027C331.518 659.343 330.87 659.501 330.138 659.501ZM339.317 659.533C338.476 659.53 337.757 659.308 337.16 658.867C336.563 658.427 336.107 657.786 335.791 656.945C335.475 656.103 335.317 655.089 335.317 653.903C335.317 652.72 335.475 651.71 335.791 650.872C336.111 650.034 336.569 649.395 337.165 648.954C337.765 648.514 338.483 648.294 339.317 648.294C340.152 648.294 340.867 648.516 341.464 648.96C342.061 649.4 342.517 650.039 342.833 650.877C343.153 651.712 343.312 652.72 343.312 653.903C343.312 655.093 343.154 656.108 342.838 656.95C342.522 657.788 342.066 658.429 341.469 658.873C340.873 659.313 340.155 659.533 339.317 659.533ZM339.317 658.111C340.056 658.111 340.633 657.751 341.049 657.03C341.468 656.309 341.677 655.267 341.677 653.903C341.677 652.997 341.581 652.232 341.389 651.607C341.201 650.979 340.93 650.503 340.574 650.18C340.223 649.853 339.804 649.69 339.317 649.69C338.582 649.69 338.005 650.052 337.586 650.776C337.167 651.501 336.956 652.543 336.952 653.903C336.952 654.812 337.046 655.581 337.235 656.209C337.426 656.834 337.698 657.308 338.05 657.632C338.401 657.951 338.824 658.111 339.317 658.111ZM350.576 657.307V656.731C350.576 656.32 350.661 655.943 350.832 655.602C351.006 655.258 351.258 654.982 351.588 654.777C351.922 654.567 352.325 654.462 352.798 654.462C353.28 654.462 353.685 654.565 354.012 654.771C354.339 654.977 354.585 655.252 354.752 655.597C354.923 655.941 355.008 656.32 355.008 656.731V657.307C355.008 657.719 354.923 658.097 354.752 658.441C354.582 658.782 354.332 659.057 354.001 659.267C353.675 659.473 353.273 659.576 352.798 659.576C352.318 659.576 351.913 659.473 351.583 659.267C351.253 659.057 351.002 658.782 350.832 658.441C350.661 658.097 350.576 657.719 350.576 657.307ZM351.817 656.731V657.307C351.817 657.612 351.89 657.889 352.036 658.138C352.181 658.386 352.435 658.511 352.798 658.511C353.156 658.511 353.407 658.386 353.549 658.138C353.691 657.889 353.762 657.612 353.762 657.307V656.731C353.762 656.426 353.692 656.149 353.554 655.9C353.419 655.652 353.167 655.528 352.798 655.528C352.442 655.528 352.19 655.652 352.041 655.9C351.892 656.149 351.817 656.426 351.817 656.731ZM345.09 651.064V650.489C345.09 650.077 345.175 649.698 345.345 649.354C345.519 649.009 345.772 648.734 346.102 648.528C346.436 648.322 346.839 648.219 347.311 648.219C347.794 648.219 348.199 648.322 348.525 648.528C348.852 648.734 349.099 649.009 349.266 649.354C349.433 649.698 349.516 650.077 349.516 650.489V651.064C349.516 651.476 349.431 651.854 349.261 652.198C349.094 652.539 348.845 652.815 348.515 653.024C348.188 653.23 347.787 653.333 347.311 653.333C346.828 653.333 346.421 653.23 346.091 653.024C345.764 652.815 345.516 652.539 345.345 652.198C345.175 651.854 345.09 651.476 345.09 651.064ZM346.336 650.489V651.064C346.336 651.369 346.407 651.646 346.549 651.895C346.695 652.143 346.949 652.268 347.311 652.268C347.666 652.268 347.915 652.143 348.057 651.895C348.202 651.646 348.275 651.369 348.275 651.064V650.489C348.275 650.183 348.206 649.906 348.067 649.658C347.929 649.409 347.677 649.285 347.311 649.285C346.956 649.285 346.704 649.409 346.555 649.658C346.409 649.906 346.336 650.183 346.336 650.489ZM345.596 659.352L353.096 648.443H354.369L346.869 659.352H345.596Z" fill="white"/>
<path d="M330.676 622.738V633.647H329.025V624.389H328.961L326.351 626.094V624.517L329.073 622.738H330.676ZM336.935 622.589C337.421 622.592 337.901 622.681 338.373 622.855C338.845 623.029 339.272 623.313 339.652 623.707C340.035 624.102 340.341 624.634 340.568 625.305C340.799 625.973 340.916 626.804 340.919 627.798C340.919 628.754 340.823 629.604 340.632 630.35C340.44 631.092 340.165 631.719 339.806 632.23C339.451 632.742 339.019 633.13 338.512 633.397C338.004 633.663 337.432 633.796 336.796 633.796C336.147 633.796 335.57 633.668 335.065 633.413C334.561 633.157 334.151 632.804 333.835 632.353C333.519 631.898 333.322 631.376 333.244 630.787H334.868C334.975 631.255 335.191 631.635 335.518 631.927C335.848 632.214 336.274 632.358 336.796 632.358C337.595 632.358 338.219 632.01 338.666 631.314C339.114 630.614 339.339 629.638 339.343 628.384H339.257C339.073 628.69 338.842 628.952 338.565 629.173C338.292 629.393 337.984 629.563 337.643 629.684C337.303 629.805 336.939 629.865 336.551 629.865C335.923 629.865 335.351 629.711 334.836 629.402C334.321 629.093 333.911 628.668 333.606 628.129C333.3 627.589 333.148 626.973 333.148 626.28C333.148 625.591 333.304 624.966 333.616 624.405C333.932 623.844 334.373 623.4 334.937 623.074C335.506 622.743 336.171 622.582 336.935 622.589ZM336.94 623.974C336.525 623.974 336.15 624.077 335.816 624.283C335.486 624.485 335.225 624.76 335.033 625.108C334.842 625.453 334.746 625.836 334.746 626.259C334.746 626.682 334.838 627.065 335.023 627.41C335.211 627.75 335.467 628.022 335.79 628.225C336.116 628.423 336.489 628.523 336.908 628.523C337.221 628.523 337.512 628.462 337.782 628.342C338.052 628.221 338.288 628.054 338.49 627.841C338.693 627.624 338.851 627.379 338.964 627.106C339.078 626.832 339.135 626.545 339.135 626.243C339.135 625.842 339.039 625.469 338.847 625.124C338.659 624.78 338.4 624.503 338.07 624.293C337.739 624.08 337.363 623.974 336.94 623.974ZM348.218 631.602V631.026C348.218 630.614 348.303 630.238 348.474 629.897C348.648 629.553 348.9 629.277 349.23 629.071C349.564 628.862 349.967 628.757 350.439 628.757C350.922 628.757 351.327 628.86 351.654 629.066C351.98 629.272 352.227 629.547 352.394 629.892C352.564 630.236 352.65 630.614 352.65 631.026V631.602C352.65 632.014 352.564 632.392 352.394 632.736C352.224 633.077 351.973 633.352 351.643 633.562C351.316 633.768 350.915 633.871 350.439 633.871C349.96 633.871 349.555 633.768 349.225 633.562C348.894 633.352 348.644 633.077 348.474 632.736C348.303 632.392 348.218 632.014 348.218 631.602ZM349.459 631.026V631.602C349.459 631.907 349.532 632.184 349.677 632.433C349.823 632.681 350.077 632.805 350.439 632.805C350.798 632.805 351.048 632.681 351.19 632.433C351.332 632.184 351.403 631.907 351.403 631.602V631.026C351.403 630.721 351.334 630.444 351.195 630.195C351.061 629.947 350.808 629.823 350.439 629.823C350.084 629.823 349.832 629.947 349.683 630.195C349.534 630.444 349.459 630.721 349.459 631.026ZM342.731 625.359V624.783C342.731 624.372 342.817 623.993 342.987 623.649C343.161 623.304 343.413 623.029 343.743 622.823C344.077 622.617 344.48 622.514 344.953 622.514C345.436 622.514 345.84 622.617 346.167 622.823C346.494 623.029 346.741 623.304 346.907 623.649C347.074 623.993 347.158 624.372 347.158 624.783V625.359C347.158 625.771 347.073 626.149 346.902 626.493C346.735 626.834 346.487 627.109 346.156 627.319C345.83 627.525 345.428 627.628 344.953 627.628C344.47 627.628 344.063 627.525 343.733 627.319C343.406 627.109 343.157 626.834 342.987 626.493C342.817 626.149 342.731 625.771 342.731 625.359ZM343.978 624.783V625.359C343.978 625.664 344.049 625.941 344.191 626.19C344.336 626.438 344.59 626.563 344.953 626.563C345.308 626.563 345.556 626.438 345.698 626.19C345.844 625.941 345.917 625.664 345.917 625.359V624.783C345.917 624.478 345.847 624.201 345.709 623.952C345.57 623.704 345.318 623.58 344.953 623.58C344.597 623.58 344.345 623.704 344.196 623.952C344.051 624.201 343.978 624.478 343.978 624.783ZM343.237 633.647L350.737 622.738H352.01L344.51 633.647H343.237Z" fill="white"/>
<line x1="24.5352" y1="534.805" x2="370.659" y2="534.805" stroke="white" stroke-width="2" stroke-linecap="round"/>
</g>
<defs>
<linearGradient id="paint0_linear_142_575" x1="196.5" y1="-2.28391e-08" x2="195.669" y2="845.555" gradientUnits="userSpaceOnUse">
<stop stop-color="#D1DD25"/>
<stop offset="0.213236" stop-color="#D1DD25"/>
<stop offset="0.686136" stop-color="white" stop-opacity="0.1"/>
</linearGradient>
<linearGradient id="paint1_linear_142_575" x1="29.2159" y1="-65.0365" x2="212.724" y2="326.522" gradientUnits="userSpaceOnUse">
<stop offset="0.145" stop-color="#FF7518"/>
<stop offset="0.665" stop-color="white" stop-opacity="0.1"/>
</linearGradient>
<clipPath id="clip0_142_575">
<rect width="393" height="852" fill="white"/>
</clipPath>
</defs>
</svg>
